<?xml version="1.0" encoding="UTF-8" standalone="no"?>
<!-- Created with Inkscape (http://www.inkscape.org/) -->

<svg
   width="168.40086mm"
   height="20.902182mm"
   viewBox="0 0 168.40086 20.902182"
   version="1.1"
   id="svg1"
   xml:space="preserve"
   xmlns="http://www.w3.org/2000/svg"
   xmlns:svg="http://www.w3.org/2000/svg"><defs
     id="defs1" /><g
     id="g15"
     transform="translate(-24.762711,-115.99516)"
     style="fill:#ef4444;fill-opacity:1"><g
       id="g14"
       style="fill:#ef4444;fill-opacity:1"
       transform="translate(-4.8054924,2.918478)"><path
         style="fill:#ef4444;fill-opacity:1;stroke:#000000;stroke-width:0"
         d="m 134.61596,504.89524 c -1.69455,-0.32875 -3.54609,-0.85528 -4.11453,-1.17008 -2.77865,-1.5388 -4.42585,-5.77951 -8.19095,-21.08763 -7.92287,-32.21273 -11.74185,-52.29331 -10.23235,-53.80281 0.60407,-0.60407 11.76301,-0.35438 13.66238,0.30571 2.38308,0.82819 4.44333,2.6226 5.58856,4.86742 1.22672,2.40457 2.51214,10.2659 4.02028,24.58703 0.67262,6.38714 1.52932,13.94573 1.90378,16.79685 0.37446,2.85113 0.68083,5.3574 0.68083,5.5695 0,0.2121 0.19621,0.38564 0.43601,0.38564 0.93864,0 3.27986,-13.38735 5.47103,-31.28399 0.65433,-5.34435 1.53437,-12.10725 1.95563,-15.02868 0.76425,-5.29998 0.76922,-5.31271 2.25813,-5.77839 4.88419,-1.5276 13.657,-0.92105 17.27268,1.19423 2.36951,1.38623 4.63709,4.30652 5.32357,6.85592 0.56122,2.0842 3.44863,26.15845 4.25885,35.50891 0.65437,7.55177 0.81623,8.532 1.40885,8.532 0.85032,0 2.02961,-6.37783 6.179,-33.41699 1.41564,-9.22484 2.73288,-16.31932 3.21082,-17.293 1.10419,-2.24948 2.91115,-2.71389 7.79161,-2.00256 4.40386,0.64187 7.218,2.03587 8.81098,4.36456 1.03373,1.51116 1.112,1.99817 0.87829,5.46501 -0.59085,8.76488 -10.68075,49.59102 -15.06716,60.96535 -1.8234,4.72824 -2.78802,5.41405 -8.25577,5.86951 -5.67596,0.4728 -9.23946,-0.0541 -11.78978,-1.7434 -3.92624,-2.60064 -4.9871,-6.60748 -7.38828,-27.90514 -2.05776,-18.25166 -2.66669,-22.16642 -3.34222,-21.48668 -0.21992,0.22129 -1.48285,7.65455 -2.80651,16.51834 -4.39909,29.45817 -5.10539,32.72977 -7.29784,33.80404 -1.80386,0.88387 -8.98052,1.11653 -12.62589,0.40933 z"
         id="path5"
         transform="scale(0.26458333)" /><path
         style="fill:#ef4444;fill-opacity:1;stroke:#000000;stroke-width:0"
         d="m 57.438908,133.60599 c -1.328748,-0.30791 -1.808109,-0.66522 -1.956083,-1.45808 -0.09804,-0.52531 0.16464,-4.59654 0.648089,-10.04444 0.438656,-4.94316 0.403162,-4.72617 0.793343,-4.85005 0.40369,-0.12818 2.144977,-0.0522 2.872158,0.1253 0.72431,0.17681 1.237371,0.664 1.351962,1.28379 0.0492,0.26614 0.05816,1.4864 0.0199,2.7117 l -0.06956,2.22782 0.458877,-0.0615 c 0.252381,-0.0339 1.284042,-0.062 2.292575,-0.0627 l 1.8337,-10e-4 0.08361,-1.14436 c 0.202237,-2.76789 0.470527,-4.80719 0.652388,-4.95889 0.205084,-0.17107 1.99953,-0.21607 2.84185,-0.0713 0.651589,0.11201 1.308473,0.60621 1.492948,1.1232 0.27163,0.76124 0.07946,4.52621 -0.587507,11.51059 -0.30208,3.16331 -0.340005,3.45278 -0.469778,3.58566 -0.156316,0.16007 -1.766279,0.16979 -2.798146,0.0169 -0.788085,-0.11677 -1.188445,-0.33935 -1.539899,-0.85608 -0.173985,-0.2558 -0.204211,-0.60132 -0.186867,-2.13614 0.01138,-1.00703 0.07064,-2.20861 0.131696,-2.67017 l 0.111006,-0.8392 h -2.283293 -2.283291 l -0.07647,0.48318 c -0.04206,0.26575 -0.159478,1.35289 -0.260927,2.41587 -0.319085,3.34333 -0.388909,3.65094 -0.851564,3.75155 -0.460007,0.10004 -1.621142,0.0574 -2.220712,-0.0815 z"
         id="path6" /><path
         style="fill:#ef4444;fill-opacity:1;stroke:#000000;stroke-width:0"
         d="m 75.928235,133.6423 c -1.364491,-0.12616 -1.984738,-0.47465 -2.321454,-1.30433 -0.187555,-0.46214 -0.104556,-2.70196 0.252267,-6.80757 0.141377,-1.62667 0.340246,-4.06239 0.441931,-5.41271 0.101687,-1.35032 0.219874,-2.52928 0.262638,-2.6199 0.04277,-0.0906 0.228238,-0.18791 0.41216,-0.21619 0.502701,-0.0773 2.953062,-0.10807 6.713678,-0.0843 l 3.369368,0.0213 -0.05296,0.99436 c -0.05926,1.1126 -0.368704,1.84937 -0.873654,2.08012 -0.197104,0.0901 -1.025213,0.15269 -2.513068,0.19002 -1.220501,0.0306 -2.250569,0.0813 -2.289042,0.11257 -0.07557,0.0614 -0.310023,2.8701 -0.244854,2.93323 0.02167,0.021 0.884777,0.0739 1.918002,0.11749 1.033222,0.0436 1.946547,0.11347 2.029613,0.15522 0.1098,0.0552 0.129688,0.34005 0.07286,1.0436 -0.141423,1.7508 -0.535099,2.04167 -2.890915,2.13602 l -1.428789,0.0572 -0.07874,0.36783 c -0.04331,0.2023 -0.114432,0.90708 -0.158051,1.56616 l -0.07931,1.19833 1.994392,0.007 c 2.594395,0.009 3.91769,0.10763 4.068775,0.30189 0.291704,0.37508 0.01085,2.14922 -0.426098,2.6915 -0.118459,0.14702 -0.40454,0.29647 -0.676002,0.35314 -0.628031,0.1311 -6.381726,0.22142 -7.502742,0.11777 z"
         id="path7" /><path
         style="fill:#ef4444;fill-opacity:1;stroke:#000000;stroke-width:0"
         d="m 97.087699,133.8747 c -1.122825,-0.26735 -2.212414,-1.7054 -3.149428,-4.15665 -0.283797,-0.74241 -0.594458,-1.4031 -0.690356,-1.46819 -0.0959,-0.0651 -0.389935,-0.10383 -0.653409,-0.0861 l -0.47905,0.0323 -0.08939,0.82054 c -0.474898,4.35941 -0.512061,4.54081 -0.959633,4.68386 -0.194635,0.0622 -0.742992,0.0793 -1.333817,0.0416 -1.316228,-0.0841 -2.20127,-0.42038 -2.522514,-0.95847 -0.297624,-0.49853 -0.371504,-2.18764 -0.189566,-4.33413 0.07397,-0.87269 0.276336,-3.27137 0.449707,-5.3304 0.353642,-4.20006 0.530392,-5.75293 0.667576,-5.86513 0.333438,-0.27269 7.393135,-0.43685 8.555188,-0.19892 1.502992,0.30773 2.786647,1.0035 3.461813,1.87639 0.66954,0.86563 0.85247,1.55666 0.85062,3.21328 -0.002,1.3775 -0.0355,1.62162 -0.32503,2.33277 -0.40627,0.99806 -0.90274,1.6338 -1.857513,2.3786 -0.446185,0.34806 -0.750353,0.67167 -0.750353,0.79832 0,0.11714 0.528053,0.91005 1.173451,1.76201 1.350075,1.78219 1.836455,2.5317 1.836455,2.83 0,0.11596 -0.22589,0.41125 -0.50197,0.6562 -0.839018,0.74441 -2.503586,1.20774 -3.492784,0.9722 z m -2.054632,-9.23435 c 0.745249,-0.28945 1.174398,-0.91005 1.252379,-1.8111 0.110836,-1.28066 -0.33327,-1.91275 -1.548186,-2.20355 -0.630221,-0.15084 -1.709012,-0.0892 -1.954678,0.11174 -0.170408,0.13937 -0.348565,1.48095 -0.35111,2.644 -0.0033,1.48746 0.118242,1.62171 1.37705,1.52152 0.379373,-0.0302 0.930418,-0.14837 1.224545,-0.26261 z"
         id="path8" /><path
         style="fill:#ef4444;fill-opacity:1;stroke:#000000;stroke-width:0"
         d="m 106.55673,133.63847 c -0.88634,-0.0434 -1.77736,-0.13484 -1.98004,-0.20326 -0.45787,-0.15457 -1.00168,-0.88696 -1.11653,-1.50372 -0.0917,-0.49265 -0.0421,-1.26342 0.44593,-6.92287 0.46798,-5.42713 0.70033,-7.54824 0.84254,-7.69141 0.0977,-0.0983 1.27842,-0.12776 5.12805,-0.12776 h 5.00114 v 1.02539 c 0,1.12878 -0.14189,1.53121 -0.68355,1.93874 -0.32844,0.2471 -0.41207,0.25734 -2.53807,0.31059 -1.8751,0.047 -2.2214,0.0807 -2.35451,0.22902 -0.16242,0.18103 -0.39294,2.70436 -0.25717,2.81501 0.0688,0.0561 2.35861,0.19686 3.49759,0.21502 l 0.48608,0.008 -0.0554,1.14988 c -0.0607,1.25939 -0.15193,1.4794 -0.75969,1.8327 -0.3623,0.21061 -0.5786,0.24109 -1.93697,0.27298 l -1.52913,0.0359 -0.0703,0.27073 c -0.0929,0.35801 -0.3154,2.12744 -0.31816,2.53032 l -0.002,0.31757 2.8948,0.0522 c 2.48139,0.0448 2.92468,0.0766 3.10396,0.22297 0.16596,0.13549 0.20794,0.36516 0.20326,1.11227 -0.007,1.10048 -0.26644,1.67048 -0.86638,1.9026 -0.76508,0.29602 -3.62488,0.37912 -7.13529,0.20734 z"
         id="path9" /><path
         style="display:none;fill:#ef4444;fill-opacity:1;stroke:#000000;stroke-width:0"
         d="m 40.286564,151.51705 c -4.206176,-0.64568 -9.375435,-15.63355 -12.199913,-17.26433 -2.365114,-1.3656 0,0 0,0 v 0 c 6.874814,-2.31079 17.412722,12.20593 26.149483,5.86637 l 55.569356,-1.84489 c -4.80482,4.73595 -54.414133,12.01626 -59.768448,13.01717 -1.882634,0.35192 -8.005251,0.49371 -9.750478,0.22581 z"
         id="path10" /><path
         style="fill:#ef4444;fill-opacity:1;stroke:#000000;stroke-width:0"
         d="m 459.38591,504.351 c -2.66701,-0.8429 -3.65067,-1.77894 -4.6845,-4.45768 -1.22323,-3.1695 -1.029,-12.32289 0.75876,-35.75801 0.81164,-10.63951 1.47571,-19.54478 1.47571,-19.7895 0,-0.26089 -3.55723,-0.44493 -8.60007,-0.44493 h -8.60007 l 0.24853,-4.8585 c 0.26204,-5.12259 0.98706,-7.58323 2.67852,-9.09061 0.93462,-0.83291 2.23528,-0.95432 14.64091,-1.36657 13.75202,-0.45699 35.4714,-0.0784 36.63141,0.63852 0.51688,0.31945 0.52743,1.2546 0.0592,5.24576 -0.94468,8.05174 -2.0613,9.06451 -10.2774,9.32148 -6.19383,0.19373 -7.57944,0.631 -8.26919,2.60963 -0.28035,0.8042 -1.04144,9.79598 -1.69132,19.98173 -1.35267,21.20104 -2.47835,35.05557 -3.01032,37.0503 l -0.3673,1.37724 -4.46993,0.095 c -2.73048,0.058 -5.26884,-0.15751 -6.5229,-0.55385 z"
         id="path11"
         transform="scale(0.26458333)" /><path
         style="fill:#ef4444;fill-opacity:1;stroke:#000000;stroke-width:0"
         d="m 135.94711,133.66852 c -1.39089,-0.30241 -2.2298,-0.67241 -3.08321,-1.35987 -1.51707,-1.22207 -2.08491,-2.78114 -2.08687,-5.72969 -0.002,-2.67636 0.46087,-4.45738 1.54274,-5.93907 0.56379,-0.77214 2.38055,-2.25081 3.2511,-2.64609 1.29553,-0.58824 2.53554,-0.85714 4.20132,-0.91106 2.86703,-0.0928 4.55422,0.35601 6.00395,1.59717 1.44911,1.24063 1.88776,2.23327 2.03592,4.60723 0.28623,4.58588 -1.41222,8.01957 -4.7809,9.66537 -1.17811,0.57558 -2.49052,0.83541 -4.45039,0.88106 -1.41101,0.0329 -1.84976,0.005 -2.63366,-0.16505 z m 4.26964,-3.85069 c 1.39697,-0.57558 2.64605,-3.56692 2.45493,-5.87916 -0.0941,-1.13859 -0.4726,-2.11564 -0.9918,-2.56025 -0.94941,-0.81301 -2.77057,-0.74488 -4.03047,0.15079 -1.15008,0.8176 -1.70001,2.39076 -1.70156,4.86751 -0.002,2.68809 0.73592,3.62393 2.85739,3.62538 0.67135,4.2e-4 1.04635,-0.0538 1.41151,-0.20427 z"
         id="path12" /><path
         style="fill:#ef4444;fill-opacity:1;stroke:#000000;stroke-width:0"
         d="m 583.14768,505.52676 c -7.36432,-1.56923 -12.81673,-7.63525 -15.55619,-17.30689 -1.04747,-3.69807 -1.54711,-24.1564 -0.70904,-29.03271 0.65905,-3.83468 2.95466,-10.73795 4.76805,-14.33828 4.12992,-8.1996 11.71077,-14.39244 20.01497,-16.35036 4.51841,-1.06532 15.59333,-0.96218 19.26116,0.17938 6.12277,1.90562 10.81808,6.08124 12.2058,10.85485 0.92868,3.19455 0.6994,8.634 -0.45791,10.86354 -2.17152,4.18337 -6.98593,6.77659 -12.581,6.77659 -4.19254,0 -4.63151,-0.47978 -5.21559,-5.70037 -0.40309,-3.60287 -0.59206,-4.12631 -1.91711,-5.31024 -1.16142,-1.03772 -1.93439,-1.31339 -3.68281,-1.31339 -7.71992,0 -12.51614,8.30737 -13.27257,22.98899 -0.43331,8.41036 1.04915,16.46647 3.47685,18.89418 1.12626,1.12626 1.59993,1.25082 4.75641,1.25082 6.42898,0 8.07314,-1.61831 9.1725,-9.02828 1.70219,-11.47326 1.25429,-10.88051 8.21965,-10.87794 5.46664,0.002 7.20302,0.68385 8.69347,3.41376 0.76079,1.39346 0.84038,2.72826 0.73973,12.40619 -0.12152,11.68593 -0.7247,18.40489 -1.80024,20.05337 -0.91653,1.40477 -4.16413,1.84125 -8.44251,1.1347 -4.06167,-0.67078 -5.85644,-1.63326 -7.36914,-3.95187 l -1.13467,-1.7392 -2.42033,2.1873 c -1.33118,1.203 -3.3371,2.59615 -4.4576,3.09588 -2.3542,1.04994 -9.14858,1.51977 -12.29188,0.84998 z"
         id="path13"
         transform="scale(0.26458333)" /><path
         style="fill:#ef4444;fill-opacity:1;stroke:#000000;stroke-width:0"
         d="m 172.44499,133.88534 c -3.01985,-0.35496 -5.04037,-1.68907 -5.89408,-3.89176 -0.58688,-1.51425 -0.70378,-4.46015 -0.25277,-6.37017 0.42528,-1.80107 1.47743,-3.46081 2.94836,-4.651 1.70765,-1.38171 3.24959,-1.92864 5.69106,-2.01862 2.91795,-0.10755 4.63853,0.3178 6.09818,1.50752 0.89584,0.73017 1.50565,1.67252 1.84542,2.85176 0.17663,0.61301 0.22389,1.2194 0.22389,2.87255 0,2.30579 -0.12523,3.01571 -0.84536,4.79231 -1.05011,2.59068 -3.65097,4.38067 -7.07155,4.86686 -1.1817,0.16796 -1.60581,0.17423 -2.74315,0.0406 z m 3.28318,-4.13508 c 0.54059,-0.32207 1.33254,-1.34683 1.65,-2.13505 0.69718,-1.731 0.82848,-4.28958 0.28126,-5.4807 -0.43561,-0.94818 -1.26661,-1.42503 -2.48049,-1.42337 -1.3585,0.002 -2.48434,0.6446 -3.12355,1.78319 -0.58954,1.05012 -0.72865,1.729 -0.73405,3.58235 -0.006,2.16894 0.1481,2.67228 1.05511,3.43926 l 0.61085,0.51655 1.19355,-0.0357 c 0.9617,-0.0288 1.26226,-0.0767 1.54732,-0.2465 z"
         id="path14" /></g><path
       d="m 193.08665,123.01407 c -0.15885,0.93065 -0.44037,1.73135 -0.84662,2.40173 -0.39522,0.66279 -0.89316,1.21324 -1.49382,1.65135 -0.60065,0.43814 -1.29609,0.8032 -2.08629,1.0952 -0.78075,0.29364 -1.97202,0.0663 -2.60757,0.72188 l -0.53569,3.15167 -4.89067,-0.94989 2.5918,-4.79004 c 0.3432,-0.44919 1.20446,-0.29251 1.87154,-0.60551 0.62139,-0.2734 1.12983,-0.62768 1.52536,-1.06282 0.40499,-0.43353 0.65993,-0.95901 0.76485,-1.57643 0.15726,-0.92146 -0.04,-1.62836 -0.58983,-2.12035 -0.53875,-0.49955 -1.36214,-0.84377 -2.47018,-1.03263 -0.68193,-0.11585 -1.47798,-0.10489 -2.38833,0.0339 -0.90086,0.14041 -1.80165,1.46474 -2.53181,0.70635 l 0.14817,-4.3129 c -0.02,-0.53752 1.62506,-0.24454 2.93004,-0.2971 1.30653,-0.0618 2.60852,0.0179 3.90596,0.23907 2.33925,0.3983 4.11004,1.21736 5.31254,2.4559 1.20253,1.23855 1.66599,2.6688 1.39039,4.29072 z m -8.0474,13.84145 -5.73908,-0.97811 0.99537,-3.85786 5.08901,0.99272 z"
       id="text14"
       style="font-weight:bold;font-size:22.5778px;font-family:'.CJK Symbols Fallback Watch TC';-inkscape-font-specification:'.CJK Symbols Fallback Watch TC Bold';display:inline;fill:#ef4444;fill-opacity:1;stroke:#000000;stroke-width:0"
       aria-label="?" /></g></svg>
