<svg width="226" height="308" viewBox="0 0 226 308" fill="none" xmlns="http://www.w3.org/2000/svg">
<g clip-path="url(#clip0_7149_205)">
<path d="M158.532 0.0872177C161.17 1.30266 162.536 4.45421 163.53 7.02679C169.821 24.0898 169.29 45.0873 161.744 61.6977C160.582 64.1626 159.285 66.4491 157.637 68.6257C156.996 69.504 156.679 69.955 156.672 71.0651C156.761 71.3807 156.85 71.6968 156.942 72.0227C156.997 72.2195 157.052 72.4163 157.109 72.6194C159.417 80.5104 163.122 85.451 170.046 89.9208C173.101 91.9024 173.101 91.9024 173.37 92.9156C173.69 94.8331 172.781 96.3439 171.78 97.9404C170.985 99.0092 170.104 100.005 169.212 100.993C168.728 101.532 168.26 102.084 167.789 102.635C167.078 103.461 167.078 103.461 166.481 103.759C166.622 103.82 166.764 103.881 166.909 103.944C168.057 104.445 169.195 104.964 170.323 105.511C170.544 105.618 170.766 105.725 170.993 105.835C171.515 106.139 171.515 106.139 171.78 106.668C172.128 108.667 171.033 110.097 169.925 111.693C165.791 117.147 160.235 121.554 154.292 124.916C154.856 125.197 155.263 125.261 155.884 125.343C156.208 125.387 156.208 125.387 156.538 125.432C156.886 125.479 156.886 125.479 157.24 125.528C164.068 126.511 170.495 128.483 174.78 134.199C177.03 137.641 178.516 141.823 178.769 145.929C178.786 146.187 178.803 146.444 178.821 146.71C178.851 147.222 178.874 147.735 178.888 148.248C178.965 149.57 179.1 150.357 180.064 151.305C180.392 151.59 180.723 151.874 181.054 152.156C184.067 155.445 185.756 158.976 185.665 163.463C185.413 168.21 183.305 173.425 181.143 177.616C179.14 181.594 178.879 185.17 178.74 189.524C178.655 191.864 178.193 194.064 177.609 196.322C177.543 196.59 177.477 196.857 177.41 197.133C175.321 205.519 175.321 205.519 171.515 208.224C170.15 209.037 168.879 209.566 167.285 209.62C167.029 209.63 166.774 209.64 166.51 209.65C166.244 209.659 165.977 209.669 165.702 209.678C165.176 209.696 164.649 209.716 164.122 209.736C163.889 209.744 163.655 209.752 163.414 209.76C162.814 209.807 162.291 209.92 161.711 210.075C159.477 210.259 157.601 210.107 155.617 209.017C155.446 208.87 155.275 208.723 155.098 208.572C154.575 208.161 154.575 208.161 153.919 208.252C153.571 208.336 153.571 208.336 153.216 208.422C150.538 209.049 147.839 209.054 145.101 209.033C144.786 209.032 144.471 209.031 144.146 209.03C143.377 209.027 142.608 209.023 141.839 209.017C143.625 209.876 145.364 210.587 147.288 211.067C147.492 211.122 147.697 211.176 147.908 211.233C152.976 212.537 158.769 212.358 163.831 211.133C164.011 211.093 164.191 211.053 164.376 211.012C176.721 208.255 190.276 199.331 197.145 188.659C200.861 182.751 202.224 176.185 202.856 169.32C202.915 168.7 202.977 168.08 203.039 167.459C203.063 167.18 203.063 167.18 203.086 166.896C203.261 165.164 203.824 163.865 205.166 162.735C206.805 162.19 208.012 162.353 209.571 163.032C215.656 166.307 219.385 173.835 221.329 180.19C223.317 186.893 222.788 194.379 221.063 201.083C221.282 200.952 221.501 200.821 221.726 200.686C222.885 200.19 223.521 200.169 224.773 200.29C225.357 200.569 225.357 200.569 225.833 201.083C225.961 201.787 226.009 202.345 225.999 203.05C225.996 203.247 225.994 203.444 225.992 203.647C225.832 207.731 224.117 211.593 222.123 215.1C221.903 215.489 221.903 215.489 221.678 215.887C219.553 219.409 216.634 222.52 213.363 225.001C213.169 225.148 212.976 225.296 212.776 225.448C211.032 226.754 209.215 227.842 207.286 228.852C207.298 229.136 207.311 229.42 207.325 229.712C207.259 231.377 206.324 232.2 205.177 233.33C201.817 236.249 197.487 237.988 193.242 239.166C193.054 239.219 192.867 239.271 192.673 239.325C178.128 243.28 162.044 239.718 149.106 232.533C143.701 229.439 139.009 225.641 134.685 221.183C133.634 221.532 133.39 222.042 132.748 222.935C132.056 223.894 131.357 224.799 130.529 225.645C130.225 226.055 130.225 226.055 129.916 226.472C130.552 229.433 133.833 232.874 136.309 234.515C138.13 235.551 139.708 235.634 141.773 235.563C142.064 235.559 142.354 235.555 142.654 235.551C144.003 235.527 145.278 235.434 146.608 235.199C149.257 234.999 151.416 235.397 153.507 237.095C161.62 244.645 163.508 260.709 163.89 271.241C163.983 275.208 163.93 279.712 161.198 282.868C158.806 285.195 156.286 285.606 153.06 285.573C151.278 285.512 149.788 285.232 148.198 284.39C147.857 284.213 147.857 284.213 147.51 284.032C142.936 281.463 140.304 277.17 138.875 272.208C138.478 270.611 138.185 269.007 137.931 267.382C137.88 267.06 137.88 267.06 137.828 266.731C137.607 265.205 137.563 263.716 137.6 262.175C137.425 262.171 137.25 262.168 137.07 262.164C126.219 261.642 116.151 256.534 106.864 251.332C105.24 253.082 103.682 254.861 102.182 256.718C101.784 257.207 101.381 257.691 100.977 258.175C98.806 260.78 96.7177 263.436 94.6756 266.142C94.4087 266.494 94.1413 266.846 93.8745 267.198C90.9306 271.087 88.0924 275.052 85.2865 279.04C84.8542 279.655 84.4211 280.269 83.988 280.883C82.6859 282.732 81.387 284.583 80.1181 286.455C79.9438 286.712 79.7699 286.969 79.5906 287.233C79.259 287.723 78.9284 288.214 78.599 288.705C77.4991 290.331 76.3184 291.868 75.0684 293.382C74.8586 293.637 74.6487 293.892 74.4326 294.154C72.5559 296.305 70.5008 298.179 67.5592 298.505C61.2029 298.622 55.9518 294.876 51.2216 291.002C51.0589 290.87 50.8963 290.739 50.7287 290.603C48.4889 288.776 46.4172 286.787 44.3655 284.754C44.1355 284.527 43.9056 284.3 43.6686 284.066C42.1003 282.493 40.679 280.839 39.298 279.101C39.0645 278.814 38.831 278.528 38.5973 278.241C32.5657 270.605 27.5227 261.057 28.4345 251.068C28.9661 248.017 30.4627 245.222 32.8944 243.264C35.9164 241.183 39.0169 240.563 42.6391 241.181C50.8635 243.138 57.1227 249.42 61.5394 256.335C61.9649 256.971 62.3356 257.426 62.8797 257.944C63.0234 257.641 63.0234 257.641 63.1699 257.332C65.2457 252.966 67.3911 248.667 69.7688 244.456C70.0241 243.999 70.2788 243.542 70.5336 243.086C73.6976 237.457 77.1617 232.003 80.8972 226.736C80.217 225.513 79.4891 224.376 78.6781 223.232C75.0203 217.869 69.7688 209.171 69.7688 202.405C69.6183 202.379 69.4678 202.353 69.3124 202.327C67.8553 202.045 66.7437 201.684 65.5297 200.818C64.7964 199.575 64.9307 198.214 64.9501 196.818C64.9523 196.551 64.9546 196.283 64.9568 196.008C64.9667 195.143 64.982 194.278 64.9995 193.413C65.0044 193.134 65.0098 192.855 65.0152 192.567C65.0979 188.587 65.376 184.645 65.7903 180.688C66.2202 176.992 66.2202 176.992 65.4699 173.414C65.0799 172.219 64.9685 170.971 64.8175 169.727C64.7829 169.46 64.7488 169.193 64.7133 168.919C64.6302 168.268 64.5488 167.617 64.4698 166.966C64.2213 166.931 63.9728 166.895 63.7172 166.858C54.9769 165.506 44.2506 162.314 37.5519 156.161C37.0656 155.423 37.1701 155.081 37.3108 154.222C37.4237 153.461 37.4237 153.461 37.1783 152.685C36.0771 151.471 34.6066 150.602 33.2663 149.674C27.5918 145.585 23.3626 139.524 20.2206 133.379C20.0455 133.039 20.0455 133.039 19.8668 132.692C17.4233 127.905 15.4005 122.946 13.9856 117.759C13.9293 117.556 13.873 117.352 13.815 117.143C13.5389 116.144 13.2726 115.144 13.0235 114.138C12.4429 111.831 12.4429 111.831 10.8019 110.173C10.4115 109.969 10.0185 109.769 9.62198 109.577C7.42471 107.777 5.93167 105.41 5.11762 102.701C5.06793 101.775 5.06793 101.775 5.11762 101.114C4.92118 101.049 4.72479 100.984 4.52247 100.917C2.71869 100.097 1.56444 98.2439 0.822281 96.4681C0.241645 94.6806 -0.0125651 93.1021 0.000476453 91.2294C0.00180128 91.0084 0.00312615 90.7869 0.00442448 90.5592C0.0601439 87.6289 0.898456 85.4371 2.81573 83.2129C4.67726 81.6142 6.09593 80.9672 8.56212 81.0143C8.61132 80.8399 8.66052 80.6655 8.7112 80.4853C9.81496 78.1863 11.8348 76.7041 14.0933 75.6259C15.3389 75.3771 16.5702 75.4201 17.8359 75.4604C17.8052 75.3049 17.7745 75.1489 17.7428 74.9884C17.6017 74.2701 17.4621 73.551 17.3225 72.8324C17.2742 72.5876 17.2259 72.3423 17.1761 72.0904C16.4204 68.1823 15.6129 63.5139 17.5709 59.8569C17.6741 59.6623 17.7772 59.4678 17.8835 59.2669C18.9384 57.6068 20.5054 56.7747 22.3403 56.1546C23.9879 55.8704 25.4507 56.0143 26.9047 56.8643C31.6433 60.3752 31.8855 68.2756 32.8788 73.6299C32.9177 73.8402 32.9567 74.05 32.9968 74.2666C33.0552 74.5813 33.0552 74.5813 33.1148 74.9027C33.577 77.382 34.0795 79.8527 34.5876 82.3234C34.6498 82.6283 34.7119 82.9336 34.776 83.2479C34.8582 83.6469 34.8582 83.6469 34.9421 84.054C35.0586 84.717 35.0586 84.717 35.0586 85.5106C35.2334 85.5106 35.4083 85.5106 35.5885 85.5106C38.0547 88.3588 38.5234 91.5464 38.2984 95.1702C38.0205 98.1861 37.1329 100.957 35.8731 103.697C35.3095 105.391 36.0645 106.78 36.7643 108.321C36.8574 108.527 36.9504 108.734 37.0463 108.946C39.8596 115.066 43.6196 120.608 48.3069 125.445C48.5648 125.722 48.5648 125.722 48.8286 126.005C49.3197 126.518 49.3197 126.518 50.1617 127.032C50.4825 126.982 50.8028 126.932 51.1335 126.881C52.4702 126.674 53.3625 127.096 54.5666 127.643C60.2764 130.073 66.7014 132.581 72.9486 132.85C72.7109 132.696 72.4732 132.542 72.2279 132.383C68.2767 129.801 64.5515 126.995 61.0249 123.858C60.8012 123.66 60.8012 123.66 60.5725 123.457C57.3941 120.627 54.6583 117.604 52.281 114.073C52.1283 113.847 51.9751 113.622 51.8174 113.389C49.9613 110.484 47.5836 105.703 48.3069 102.172C48.8034 101.362 48.8034 101.362 49.6315 100.85C50.5265 100.746 51.3851 100.772 52.281 100.85C52.1948 100.721 52.1085 100.593 52.0195 100.461C51.9036 100.284 51.7877 100.107 51.6686 99.9238C51.555 99.7521 51.4408 99.5804 51.324 99.4033C50.354 97.6365 49.9446 95.8037 49.5821 93.8409C49.5349 93.6033 49.4882 93.3657 49.4396 93.1209C48.8061 89.7665 48.8061 89.7665 49.352 88.2552C50.1774 87.3012 51.1865 86.6924 52.2482 86.023C57.4952 82.6561 59.1051 78.2984 60.7019 72.4885C60.8789 71.8474 61.0613 71.2085 61.2442 70.5688C61.3588 70.1577 61.4729 69.7461 61.587 69.3345C61.6414 69.1453 61.6958 68.9566 61.7519 68.7616C62.2089 67.0669 61.9586 66.1124 61.1732 64.5876C61.0411 64.3263 60.9095 64.0649 60.7738 63.7955C60.6327 63.5157 60.4916 63.2359 60.346 62.9481C55.4293 52.9316 53.8212 42.2074 53.8221 31.1605C53.8212 30.3425 53.8168 29.5246 53.8114 28.7066C53.7655 12.5103 53.7655 12.5102 57.8785 7.9221C59.0642 7.25329 59.9605 7.21379 61.29 7.49234C67.1099 9.66488 72.2131 14.0418 76.7106 18.1888C77.2866 18.713 77.8689 19.2235 78.4588 19.7312C79.6351 20.7557 80.7409 21.8427 81.8412 22.9472C82.0313 23.1356 82.2209 23.3239 82.4163 23.5179C83.6429 24.7445 84.8008 26.0129 85.9317 27.3274C86.2089 27.6425 86.4861 27.9573 86.7638 28.2717C88.2236 29.9336 89.6577 31.6109 91.0322 33.3441C91.1557 33.4986 91.2788 33.653 91.406 33.8122C91.9222 34.4708 92.2884 34.9903 92.5558 35.7904C92.9929 35.7904 93.4301 35.7904 93.8808 35.7904C93.7783 35.6135 93.6759 35.4365 93.5703 35.2543C91.6886 31.7908 90.7253 27.8375 91.2312 23.8893C91.7668 22.8156 92.2988 22.1122 93.3506 21.5091C95.824 21.019 98.0251 22.1049 100.073 23.3935C100.941 23.9766 101.784 24.5901 102.625 25.2117C102.965 25.4623 102.965 25.4623 103.313 25.7179C103.793 26.0745 104.27 26.434 104.744 26.7985C104.728 26.3408 104.728 26.3408 104.711 25.8739C104.713 24.6965 104.933 23.6728 105.274 22.5505C105.333 22.3575 105.391 22.1646 105.451 21.9658C106.434 18.896 107.804 15.9466 110.573 14.104C111.874 13.6715 113.187 13.6341 114.482 14.104C116.232 15.6571 116.97 18.0104 117.823 20.1254C121.199 28.6184 121.199 28.6184 127.001 35.5259C127.264 35.6132 127.526 35.7005 127.796 35.7904C127.87 35.6568 127.944 35.5232 128.021 35.3855C133.63 25.3204 140.274 15.5911 148.112 7.10803C148.626 6.54673 149.118 5.97565 149.606 5.39309C150.451 4.42524 151.368 3.54333 152.305 2.66578C152.447 2.53148 152.588 2.39718 152.734 2.25881C154.486 0.645285 156.082 -0.302045 158.532 0.0872177Z" fill="#092034"/>
<path d="M156.677 5.64087C156.939 5.64087 157.201 5.64087 157.472 5.64087C160.674 13.1216 162.228 21.0542 162.506 29.1785C162.514 29.369 162.521 29.5595 162.528 29.7557C162.924 41.669 160.731 56.7711 152.811 66.2836C152.126 67.0655 152.126 67.0655 151.895 68.042C153.167 77.4335 157.859 85.3303 165.371 91.064C166.755 92.1153 168.172 93.0761 169.66 93.9732C169.259 95.3518 168.379 96.2027 167.408 97.2128C167.157 97.4764 167.157 97.4764 166.901 97.7449C164.65 100.087 162.477 101.955 159.592 103.494C161.738 105.851 164.582 107.716 167.805 107.99C164.693 115.452 153.946 120.543 147.36 124.367C147.029 124.56 146.699 124.755 146.37 124.952C138.948 129.382 130.337 132.587 122.108 135.182C121.147 135.503 120.242 135.878 119.317 136.288C119.579 136.463 119.842 136.637 120.112 136.817C115.866 141.702 108.176 145.914 101.69 146.387C97.2431 146.604 93.9048 146.171 90.4357 143.164C89.764 142.498 89.1188 141.828 88.581 141.048C88.581 140.874 88.581 140.7 88.581 140.52C88.74 140.558 88.8987 140.596 89.0626 140.635C95.1741 141.885 102.611 141.374 107.924 137.875C108.011 137.788 108.098 137.7 108.189 137.611C107.951 137.629 107.712 137.647 107.467 137.666C104.98 137.846 102.502 137.939 100.008 137.941C99.8226 137.941 99.6375 137.941 99.447 137.941C96.628 137.937 93.9713 137.794 91.231 137.082C91.0522 137.038 90.8733 136.994 90.6896 136.948C84.1634 135.323 78.1481 131.932 72.6833 128.089C72.4941 127.958 72.3049 127.826 72.11 127.691C69.3413 125.76 66.7241 123.722 64.2044 121.478C63.9654 121.269 63.7264 121.059 63.4797 120.844C58.7265 116.644 54.4563 111.77 52.5459 105.61C52.5459 105.435 52.5459 105.261 52.5459 105.081C52.6973 105.129 52.8487 105.177 53.0046 105.227C55.4533 105.984 57.9443 106.636 60.495 106.932C60.3831 106.754 60.2717 106.575 60.1567 106.391C59.9388 106.037 59.9388 106.037 59.7168 105.676C59.4998 105.326 59.4998 105.326 59.2787 104.969C58.9507 104.371 58.7629 103.895 58.6403 103.23C58.4655 103.23 58.2903 103.23 58.1101 103.23C57.7107 102.664 57.3517 102.105 57.0008 101.51C56.8952 101.332 56.79 101.154 56.6813 100.972C54.8908 97.8812 52.5603 93.6786 53.0761 90.0059C53.6781 89.472 53.6781 89.472 54.4999 88.9976C56.1439 87.9831 57.5282 86.8605 58.9054 85.5101C59.077 85.342 59.2486 85.1739 59.4256 85.0008C62.8309 81.4088 63.8751 75.8496 65.2653 71.2565C68.7514 59.7547 73.6893 49.7445 84.6132 43.7609C85.1389 43.4801 85.6668 43.2042 86.1965 42.9308C86.3587 42.8463 86.5214 42.7618 86.6885 42.6748C91.2705 40.3248 95.9294 39.2337 101.034 38.6994C100.823 38.5088 100.823 38.5088 100.608 38.3145C97.475 35.4461 95.3875 31.2814 94.9404 27.0627C94.9337 26.622 94.9315 26.1811 94.9404 25.7404C96.0763 26.1469 97.0702 26.7212 98.0869 27.3603C98.3552 27.5278 98.3552 27.5278 98.6292 27.6987C100.619 28.9584 102.542 30.3157 104.46 31.6818C107.039 33.5455 107.039 33.5455 110.043 34.4678C109.8 33.2607 109.533 32.1117 109.083 30.9637C107.92 27.5308 109.063 23.974 110.556 20.8312C111.118 19.7066 111.774 18.9293 112.693 18.0708C112.798 18.3533 112.798 18.3533 112.906 18.6415C116.15 27.6619 116.15 27.6619 121.437 35.5257C121.562 35.6654 121.688 35.8052 121.817 35.9491C123.772 38.1006 125.785 39.6395 128.326 41.0796C128.937 41.4554 129.544 41.8336 130.147 42.2201C130.298 42.3163 130.449 42.4125 130.604 42.5116C132.464 43.7155 134.236 45.0424 136.01 46.369C136.056 46.1924 136.103 46.0162 136.151 45.8342C139.685 32.6568 145.454 19.5134 154.028 8.81444C154.216 8.57575 154.216 8.57575 154.408 8.33222C154.741 7.9116 155.08 7.4951 155.419 7.07888C155.585 6.86794 155.585 6.86794 155.756 6.65274C156.045 6.30009 156.359 5.96833 156.677 5.64087Z" fill="#EF3A2F"/>
<path d="M123.821 138.669C123.821 139.474 123.698 139.856 123.395 140.587C123.305 140.811 123.214 141.034 123.121 141.265C123.025 141.505 122.928 141.744 122.828 141.991C121.269 145.952 120.356 149.962 120.314 154.227C120.311 154.444 120.309 154.662 120.306 154.886C120.212 161.396 120.212 161.396 121.437 167.76C121.567 168.245 121.567 168.245 121.7 168.739C122.979 173.045 125.091 177.394 127.796 180.983C127.999 181.261 128.203 181.538 128.413 181.824C131.885 186.495 135.951 189.95 140.832 193.104C141.258 193.38 141.681 193.661 142.104 193.942C142.154 194.901 142.154 194.901 142.104 195.793C136.644 198.396 130.828 199.809 124.95 201.15C124.429 201.269 123.908 201.39 123.387 201.514C111.117 204.426 97.2544 204.607 84.8716 202.405C84.5395 202.348 84.207 202.292 83.8647 202.234C72.6945 200.295 72.6945 200.295 68.9738 198.438C68.8462 190.488 69.1315 182.509 70.2988 174.636C70.3658 174.172 70.3658 174.172 70.4341 173.698C72.0875 162.44 75.6307 148.49 83.0168 139.462C83.1916 139.462 83.3668 139.462 83.547 139.462C83.6369 139.66 83.7272 139.859 83.8202 140.063C85.9813 144.618 89.3035 147.803 94.0459 149.627C101.259 151.615 108.65 149.06 114.912 145.561C118.102 143.678 121.193 141.292 123.821 138.669Z" fill="#FDFBF3"/>
<path d="M138.395 201.876C136.384 210.212 132.488 217.255 127.001 223.827C126.878 223.976 126.754 224.124 126.627 224.277C123.717 227.767 120.6 231.06 117.355 234.239C116.344 235.234 115.395 236.262 114.468 237.336C113.779 238.114 113.039 238.837 112.295 239.563C111.231 240.613 110.201 241.671 109.232 242.81C108.506 243.641 107.75 244.443 106.996 245.249C105.78 246.552 104.58 247.863 103.419 249.216C103.175 249.499 102.93 249.781 102.685 250.064C101.046 251.962 99.4372 253.881 97.8552 255.828C97.4742 256.291 97.0932 256.753 96.7122 257.216C96.2979 257.722 95.8841 258.23 95.4703 258.737C95.3535 258.88 95.2362 259.023 95.1158 259.17C92.1131 262.845 89.2641 266.637 86.6397 270.591C86.4932 270.781 86.3472 270.971 86.1967 271.167C86.0219 271.167 85.8467 271.167 85.6665 271.167C85.5735 270.965 85.4801 270.764 85.3844 270.556C84.5037 268.719 83.5494 267.157 82.2221 265.613C82.0514 265.404 81.8807 265.196 81.7046 264.981C78.2746 260.948 73.308 257.375 67.9141 256.885C68.3715 255.302 69.1128 253.873 69.8515 252.406C69.9925 252.126 70.1332 251.847 70.2783 251.558C75.3415 241.595 81.3608 231.729 88.7128 223.271C89.3346 222.552 89.9376 221.822 90.5356 221.083C91.915 219.391 93.3537 217.751 94.7896 216.106C95.4622 215.333 96.129 214.555 96.7953 213.777C92.057 215.772 87.5904 219.865 84.0769 223.563C82.8871 222.485 82.0954 221.301 81.2782 219.926C81.1416 219.697 81.005 219.468 80.8644 219.232C78.1577 214.599 75.2732 209.317 74.2731 203.992C74.438 204.026 74.6024 204.061 74.7718 204.096C77.9785 204.764 81.1879 205.39 84.4246 205.893C84.8115 205.954 84.8115 205.954 85.2064 206.017C86.0655 206.146 86.925 206.262 87.7863 206.372C87.9625 206.395 88.139 206.419 88.3206 206.443C92.2304 206.946 96.1295 206.992 100.068 206.985C101.123 206.983 102.178 206.99 103.234 206.997C109.868 207.014 116.388 206.416 122.911 205.215C123.366 205.133 123.821 205.051 124.277 204.97C128.45 204.213 132.575 203.361 136.595 201.991C137.811 201.584 137.811 201.584 138.395 201.876Z" fill="#EF3A2F"/>
<path d="M207.286 166.702C211.581 168.685 214.744 174.033 216.377 178.306C219.392 186.597 219.204 195.691 215.657 203.784C214.362 206.344 212.388 208.263 210.2 210.075C210.2 210.162 210.2 210.249 210.2 210.339C214.386 209.596 218.062 208.243 221.594 205.843C220.759 210.106 218.583 213.962 215.764 217.215C215.555 217.467 215.345 217.719 215.129 217.979C211.403 222.294 206.193 225.345 200.662 226.736C200.399 226.803 200.136 226.87 199.865 226.939C197.482 227.503 195.189 227.669 192.746 227.712C192.38 227.72 192.013 227.729 191.648 227.739C190.766 227.76 189.885 227.779 189.003 227.794C189.543 228.047 190.083 228.3 190.624 228.551C191.075 228.762 191.075 228.762 191.536 228.977C194.553 230.313 197.685 230.781 200.926 231.232C196.64 235.767 187.509 236.656 181.643 236.849C166.207 237.126 150.981 231.337 139.757 220.731C139.115 220.098 138.486 219.456 137.865 218.802C137.711 218.647 137.557 218.491 137.398 218.331C137.02 217.926 137.02 217.926 136.54 217.215C136.629 216.014 137.201 215.01 137.749 213.959C137.836 213.788 137.923 213.618 138.013 213.442C138.228 213.024 138.443 212.607 138.66 212.19C138.924 212.292 138.924 212.292 139.193 212.396C140.008 212.71 140.825 213.02 141.641 213.331C142.056 213.492 142.056 213.492 142.479 213.655C152.636 217.504 163.805 216.352 173.613 212.019C186.227 206.276 198.797 197.371 204.047 184.062C206.075 178.545 206.911 172.538 207.286 166.702Z" fill="#EF3A2F"/>
<path d="M64.4695 92.3866C64.3819 92.6157 64.2948 92.8448 64.2044 93.081C62.8323 98.0628 64.9453 103.682 67.3024 108.022C69.4042 111.532 72.6806 114.267 76.6578 115.396C78.1491 115.717 79.6542 115.958 81.1621 116.189C81.2173 116.509 81.2722 116.828 81.3288 117.158C82.116 121.445 83.4526 125.312 87.1001 128.038C90.9884 130.511 95.5254 131.091 100.034 130.308C103.508 129.466 106.832 127.808 109.513 125.445C109.724 125.272 109.935 125.1 110.152 124.922C115.26 120.595 118.159 114.481 119.317 107.99C119.492 107.99 119.667 107.99 119.847 107.99C120.162 108.39 120.476 108.79 120.771 109.204C121.307 109.703 121.783 109.747 122.497 109.842C121.911 107.601 121.276 105.941 119.317 104.552C117.957 103.873 115.808 104.079 114.38 104.487C113.307 104.991 112.968 105.326 112.428 106.403C113.565 106.491 114.701 106.578 115.873 106.668C114.723 107.815 113.725 108.338 112.279 109.015C112.033 109.131 111.787 109.247 111.533 109.366C109.155 110.459 106.736 111.268 104.214 111.957C103.935 112.038 103.655 112.118 103.368 112.201C96.814 113.911 89.6724 114.014 82.9917 113.083C82.5473 113.023 82.1007 112.979 81.6536 112.936C80.4526 112.786 79.7189 112.511 78.8603 111.643C77.6642 110.103 76.1281 107.586 76.1281 105.61C76.3047 105.603 76.4812 105.596 76.6632 105.589C79.6443 105.406 81.8513 104.663 84.0322 102.573C85.4979 100.876 86.2347 98.9917 86.2298 96.7667C86.2302 96.4672 86.2311 96.1677 86.2316 95.8588C86.2024 95.1693 86.1112 94.6313 85.9314 93.9736C87.9897 94.3466 89.7923 95.0734 91.7113 95.8907C93.8999 96.8003 96.0803 97.6719 98.352 98.3538C98.5479 98.4134 98.7438 98.4735 98.9455 98.5354C102.097 99.4405 105.247 99.6163 108.503 99.5934C108.695 99.593 108.888 99.5925 109.086 99.5921C111.462 99.5853 113.801 99.501 116.159 99.1904C121.076 98.5461 126.582 99.024 130.83 101.803C133.226 103.708 134.778 106.568 135.215 109.577C135.888 117.24 132.461 123.201 127.661 128.952C125.207 131.808 122.355 134.079 119.317 136.288C119.579 136.463 119.842 136.638 120.112 136.817C115.866 141.702 108.176 145.914 101.69 146.387C97.2436 146.605 93.9048 146.171 90.4362 143.164C89.764 142.499 89.1188 141.829 88.5814 141.049C88.5814 140.874 88.5814 140.7 88.5814 140.52C88.8196 140.577 88.8196 140.577 89.0626 140.635C95.1745 141.885 102.611 141.375 107.924 137.875C108.011 137.788 108.098 137.701 108.189 137.611C107.95 137.629 107.712 137.647 107.467 137.666C104.98 137.846 102.502 137.939 100.008 137.941C99.8226 137.941 99.6379 137.941 99.447 137.942C96.6285 137.937 93.9717 137.794 91.231 137.082C91.0522 137.038 90.8738 136.994 90.6896 136.948C84.1639 135.323 78.1486 131.932 72.6833 128.09C72.4941 127.959 72.3049 127.827 72.1099 127.691C69.3413 125.76 66.7241 123.722 64.2044 121.478C63.9654 121.269 63.7264 121.06 63.4802 120.844C58.7265 116.645 54.4563 111.771 52.5459 105.61C52.5459 105.436 52.5459 105.261 52.5459 105.081C52.6973 105.129 52.8487 105.177 53.0046 105.227C55.4533 105.985 57.9443 106.637 60.495 106.932C60.3863 106.76 60.278 106.587 60.1661 106.41C60.0232 106.178 59.8803 105.948 59.7334 105.709C59.5919 105.482 59.4504 105.255 59.3048 105.021C58.4062 103.371 58.2786 101.931 58.2759 100.089C58.2696 99.862 58.2628 99.6347 58.2561 99.4002C58.2476 97.4773 58.7562 96.1839 59.9185 94.6636C62.9608 91.6338 62.9603 91.6334 64.4695 92.3866Z" fill="#FDFBF3"/>
<path d="M93.0194 293.633C98.9269 293.572 104.834 293.559 110.742 293.563C112.322 293.563 113.903 293.561 115.483 293.558C124.871 293.533 134.243 293.581 143.622 294.015C143.803 294.024 143.984 294.032 144.17 294.041C150.809 294.35 157.452 294.744 164.063 295.449C164.272 295.471 164.48 295.493 164.695 295.515C180.787 297.233 180.787 297.233 183.968 299.994C184.2 300.672 184.2 300.672 183.968 301.316C176.385 307.033 160.376 306.217 151.193 306.829C150.625 306.868 150.057 306.907 149.489 306.946C136.93 307.819 124.364 308.017 111.78 307.996C110.443 307.993 109.105 307.996 107.768 307.996C87.6821 308.029 67.179 307.929 47.3539 304.339C46.7438 304.23 46.1327 304.128 45.5203 304.029C39.3903 303.01 39.3903 303.01 37.1782 301.051C37.1948 300.456 37.1948 300.456 37.4432 299.729C38.7108 298.898 39.9482 298.401 41.4011 297.993C41.5721 297.941 41.743 297.89 41.9191 297.836C43.7374 297.311 45.5985 296.993 47.4595 296.66C48.0432 296.555 48.6255 296.445 49.2082 296.334C50.2048 296.146 51.2031 295.976 52.2042 295.814C52.6099 295.746 53.0143 295.673 53.4182 295.594C56.8864 294.928 58.826 295.563 61.8197 297.349C64.0869 298.328 66.8007 298.626 69.1915 297.922C69.7616 297.671 70.2909 297.398 70.8287 297.084C71.349 296.821 71.8666 296.565 72.4022 296.333C73.0132 295.99 73.308 295.628 73.7452 295.086C74.7745 294.038 75.6268 293.94 77.0624 293.887C77.504 293.884 77.504 293.884 77.9551 293.881C78.271 293.872 78.5873 293.863 78.9131 293.854C79.7861 293.832 80.6586 293.818 81.5316 293.807C82.2801 293.797 83.0287 293.78 83.7768 293.764C86.8577 293.695 89.9385 293.666 93.0194 293.633V293.633Z" fill="#00333E"/>
<path d="M83.5917 69.9357C86.1639 71.6497 87.5069 74.2827 88.2123 77.2349C88.4163 78.423 88.4055 79.6137 88.3992 80.8161C88.3988 81.0842 88.3979 81.3528 88.3974 81.6294C88.3696 83.7208 88.2096 85.7231 87.2566 87.6262C88.131 87.8006 89.0053 87.975 89.9062 88.1548C89.6411 89.2128 89.6411 89.2128 88.9851 89.6477C87.8529 90.0826 86.7633 90.2785 85.5673 90.4525C85.3471 90.487 85.1269 90.5211 84.8996 90.5565C84.3609 90.6399 83.8217 90.7201 83.2821 90.7995C83.4227 90.9057 83.5634 91.0115 83.7085 91.1209C85.3871 92.4695 86.279 93.6795 86.5701 95.836C86.6851 98.2964 86.1302 100.383 84.5923 102.333C83.4133 103.579 82.2312 104.461 80.6326 105.081C80.2637 105.245 80.2637 105.245 79.8872 105.411C78.6367 105.705 77.4066 105.651 76.1278 105.61C77.4978 109.504 77.4978 109.504 80.2682 112.321C80.5634 112.375 80.8581 112.43 81.1623 112.486C81.3919 112.531 81.6215 112.576 81.8578 112.621C93.4463 114.745 105.38 112.617 115.608 106.932C114.559 106.845 113.509 106.758 112.428 106.668C112.428 105.61 112.428 105.61 112.806 105.227C112.971 105.119 113.136 105.011 113.306 104.899C113.469 104.789 113.632 104.679 113.8 104.565C115.3 103.703 117.116 103.887 118.787 104.023C120.402 104.758 121.386 106.049 122.182 107.61C122.468 108.435 122.575 108.982 122.497 109.841C121.917 109.924 121.917 109.924 121.172 109.841C120.427 109.213 120.427 109.213 119.847 108.519C119.847 108.344 119.847 108.17 119.847 107.99C119.672 107.99 119.497 107.99 119.317 107.99C119.314 108.135 119.31 108.28 119.306 108.429C119.007 113.388 116.346 118.259 113.223 122.007C113.035 122.235 112.847 122.462 112.654 122.697C108.982 126.957 104.479 129.737 98.9147 130.734C95.7251 130.971 92.6025 130.987 89.6411 129.676C89.4286 129.584 89.2165 129.491 88.9973 129.395C85.539 127.676 83.2214 124.641 81.8982 121.076C81.3928 119.467 81.0729 117.881 81.1623 116.189C80.8945 116.211 80.6267 116.232 80.3508 116.255C76.1678 116.24 72.5797 114.184 69.6767 111.351C65.788 107.389 63.7275 101.543 63.5918 96.0561C63.6336 93.8225 64.0245 92.074 65.5876 90.4184C67.3111 88.9129 69.4682 88.2776 71.6236 87.6262C71.5135 87.3626 71.5135 87.3626 71.4012 87.094C71.305 86.8605 71.2093 86.6269 71.1105 86.3861C71.0148 86.1561 70.9195 85.9262 70.8216 85.689C69.5702 82.2535 70.3462 78.5328 71.6586 75.2354C73.0011 72.3697 74.8217 70.3594 77.7013 69.014C79.9604 68.554 81.5536 68.818 83.5917 69.9357Z" fill="#082034"/>
<path d="M126.736 229.91C127.548 230.671 128.247 231.454 128.922 232.34C131.655 235.88 134.814 239.006 139.454 239.695C141.35 239.799 143.192 239.722 145.068 239.431C149.05 238.825 149.05 238.825 150.315 239.41C156.779 244.274 158.101 257.785 159.17 265.089C159.507 267.583 159.663 270.055 159.674 272.572C159.676 272.838 159.678 273.105 159.679 273.379C159.652 276.175 159.442 278.508 157.555 280.671C156.391 281.205 155.182 280.904 154.006 280.497C151.86 279.521 150.29 278.03 149.258 275.927C149.148 277.844 149.406 279.41 150.053 281.217C146.289 279.338 144.17 275.739 142.865 271.866C141.822 268.406 141.484 264.97 141.309 261.382C141.52 261.262 141.52 261.262 141.736 261.139C143.617 260.031 143.617 260.031 144.647 258.168C144.682 258.006 144.718 257.845 144.754 257.679C144.541 257.736 144.541 257.736 144.323 257.795C133.551 260.341 120.248 254.523 111.258 249.094C110.762 248.786 110.27 248.472 109.778 248.158C110.14 247.359 110.552 246.781 111.155 246.146C111.405 245.88 111.405 245.88 111.66 245.61C111.926 245.333 111.926 245.333 112.196 245.051C112.376 244.86 112.556 244.67 112.742 244.475C113.784 243.379 114.84 242.3 115.921 241.242C116.375 240.781 116.795 240.305 117.214 239.811C118.644 238.168 120.219 236.667 121.771 235.14C122.996 233.928 124.187 232.709 125.305 231.398C125.756 230.874 126.237 230.388 126.736 229.91Z" fill="#1D3448"/>
<path d="M30.6595 86.4843C32.4412 87.3841 33.7173 88.5565 34.3607 90.4771C35.2414 94.9487 34.2468 99.6615 32.4718 103.804C31.6733 105.912 32.7045 107.85 33.5679 109.775C33.7447 110.173 33.7447 110.173 33.925 110.58C37.3729 118.213 42.1099 125.592 48.8364 130.734C48.2842 132.748 47.5555 134.651 46.7332 136.569C46.607 136.865 46.4807 137.16 46.3509 137.465C45.4253 139.61 44.4586 141.733 43.4544 143.842C43.3275 144.11 43.2006 144.379 43.0699 144.656C42.2849 146.28 41.4038 147.777 40.3576 149.247C37.3716 148.111 34.9562 145.601 32.6737 143.428C32.3432 143.125 32.3432 143.125 32.006 142.814C24.2927 135.488 20.0058 125.019 16.8917 115.081C16.7997 114.789 16.7078 114.497 16.6131 114.195C16.5298 113.922 16.4465 113.649 16.3607 113.367C16.2871 113.127 16.2135 112.886 16.1376 112.637C15.9784 111.946 15.9516 111.341 15.9809 110.635C16.593 110.286 17.205 109.936 17.8356 109.577C17.8356 109.402 17.8356 109.227 17.8356 109.048C17.5023 109.037 17.1689 109.026 16.8254 109.015C14.1915 108.713 12.0647 107.072 10.4166 105.081C9.0918 103.278 9.0918 103.278 9.0918 102.172C9.29677 102.133 9.5017 102.094 9.71283 102.054C11.5078 101.668 13.1618 101.236 14.3911 99.7916C14.4915 99.3881 14.4915 99.3881 14.594 98.9765C14.7019 98.7218 14.8098 98.4672 14.921 98.2045C15.7842 97.8763 15.7842 97.8763 16.8089 97.7086C17.1484 97.6494 17.4879 97.5903 17.8377 97.5288C18.0994 97.4903 18.361 97.4513 18.6305 97.4114C18.6454 97.8279 18.6454 97.8279 18.6605 98.2533C18.7501 100.299 18.883 102.116 19.6904 104.023C19.7669 104.279 19.8434 104.536 19.9222 104.8C20.1875 105.403 20.1875 105.403 20.8662 105.692C21.5559 105.909 21.5559 105.909 22.34 105.874C22.3209 105.694 22.3018 105.514 22.2821 105.329C22.1271 103.714 22.0405 102.107 22.0254 100.486C22.0216 100.14 22.0179 99.7942 22.014 99.4383C22.0761 98.4533 22.141 97.7566 22.605 96.8824C23.3916 96.5726 23.3916 96.5726 24.3273 96.4197C25.5893 96.2592 25.5893 96.2592 26.5794 95.5598C26.6236 94.8765 26.6236 94.8766 26.5794 94.2377C26.3011 94.2337 26.0227 94.2301 25.7359 94.2265C21.5326 94.1099 21.5326 94.1099 19.9553 92.6506C19.014 91.4231 18.6947 90.2292 18.8955 88.6838C19.3576 87.4455 19.921 86.7762 21.0152 86.0391C23.81 85.1093 27.9232 85.4505 30.6595 86.4843Z" fill="#2F455B"/>
<path d="M169.395 147.66C172.958 148.265 177.769 154.139 179.756 156.896C181.461 159.487 182.056 161.847 181.468 164.929C180.049 171.068 177.211 176.859 174.69 182.609C174.492 183.064 174.492 183.064 174.29 183.529C174.03 184.123 173.766 184.715 173.498 185.306C173.374 185.582 173.251 185.859 173.125 186.145C173.015 186.387 172.905 186.63 172.791 186.879C172.408 188.147 172.748 189.265 173.105 190.504C174.069 194.726 173.614 199.264 171.582 203.067C170.821 204.249 169.926 205.07 168.601 205.579C168.251 205.579 167.901 205.579 167.541 205.579C167.525 205.34 167.509 205.101 167.492 204.855C167.47 204.543 167.448 204.231 167.425 203.909C167.404 203.6 167.382 203.29 167.36 202.97C167.306 202.134 167.306 202.134 167.011 201.347C166.749 201.26 166.486 201.173 166.216 201.083C166.134 201.41 166.134 201.41 166.05 201.744C165.262 203.747 164.037 205.049 162.152 206.09C160.709 206.668 159.421 206.584 157.969 206.091C157.472 205.579 157.472 205.579 157.356 204.819C157.465 203.3 157.749 201.789 158.002 200.29C156.683 200.682 155.868 201.015 154.939 202.042C154.281 202.743 154.013 202.939 153.067 203.281C152.098 203.192 152.006 203.147 151.411 202.455C150.311 200.808 150.322 199.044 150.583 197.116C150.95 195.73 151.567 194.445 152.173 193.149C152.642 192.102 153.059 191.118 153.233 189.975C151.034 191.496 148.952 193.355 148.265 196.041C148.243 196.222 148.221 196.401 148.199 196.587C148.024 196.587 147.849 196.587 147.668 196.587C147.502 192.657 148.332 189.757 150.914 186.752C152.105 185.481 153.413 184.337 155.058 183.698C156.161 183.241 156.592 183.005 157.144 181.903C157.247 181.534 157.341 181.162 157.427 180.788C157.48 180.588 157.533 180.387 157.588 180.181C157.756 179.541 157.913 178.899 158.068 178.256C158.177 177.836 158.285 177.415 158.396 176.995C158.61 176.168 158.821 175.341 159.026 174.511C159.388 173.059 159.78 171.614 160.173 170.17C160.358 169.457 160.516 168.748 160.652 168.025C159.865 167.763 159.865 167.763 159.062 167.495C160.541 160.789 164.006 154.265 168.336 148.983C168.541 148.727 168.746 148.471 168.957 148.208C169.102 148.027 169.246 147.847 169.395 147.66Z" fill="#2F445B"/>
<path d="M147.967 135.528C148.253 135.644 148.538 135.761 148.833 135.88C154.94 138.413 160.94 141.262 166.216 145.28C165.671 146.115 165.116 146.931 164.508 147.723C160.086 153.485 157.359 160.114 155.087 166.966C153.91 166.804 152.964 166.338 151.925 165.793C147.271 163.422 142.441 161.049 137.335 159.826C137.582 160.27 137.838 160.71 138.097 161.148C138.238 161.394 138.38 161.639 138.525 161.892C139.064 162.699 139.738 163.107 140.54 163.641C141.322 164.259 141.767 164.626 142.074 165.581C142.145 166.44 142.138 167.262 142.098 168.124C142.094 168.432 142.09 168.74 142.087 169.057C142.072 170.036 142.039 171.013 142.005 171.991C141.992 172.657 141.979 173.323 141.969 173.988C141.939 175.615 141.895 177.241 141.839 178.868C141.664 178.868 141.49 178.868 141.31 178.868C136.996 174.408 134.165 168.47 132.831 162.471C132.766 162.185 132.701 161.899 132.634 161.604C131.2 153.986 132.725 145.861 137.082 139.46C140.211 135.382 143.019 133.483 147.967 135.528Z" fill="#FDFBF3"/>
<path d="M46.133 246.382C54.6491 250.692 59.9114 260.139 64.279 268.185C64.4264 268.454 64.5742 268.723 64.7261 269.001C64.856 269.24 64.9853 269.479 65.1188 269.726C65.5429 270.395 66.0089 270.896 66.5894 271.431C66.3445 268.955 65.9837 266.681 65.1866 264.313C64.7544 262.431 65.6593 260.951 66.4734 259.299C66.5858 259.067 66.6985 258.834 66.8145 258.594C67.0908 258.024 67.3689 257.454 67.6488 256.885C72.7785 256.713 76.9633 260.193 80.6104 263.418C82.6763 265.366 85.3384 268.344 85.9315 271.167C85.284 272.431 84.5103 273.557 83.671 274.704C82.6637 276.093 81.6833 277.497 80.7231 278.919C80.5964 279.107 80.4697 279.295 80.339 279.488C79.9508 280.064 79.5626 280.64 79.1748 281.217C77.6998 283.409 76.2238 285.6 74.6912 287.753C74.587 287.9 74.4832 288.047 74.3758 288.198C72.9785 290.146 71.409 291.919 69.5036 293.382C69.105 292.785 68.8017 292.262 68.502 291.62C68.4113 291.427 68.321 291.233 68.2275 291.035C68.0815 290.722 68.0815 290.722 67.9328 290.402C67.7212 289.952 67.51 289.502 67.2988 289.053C67.1883 288.817 67.0778 288.582 66.9641 288.34C64.4848 283.069 61.9229 277.909 58.7715 273C58.1712 272.064 57.5965 271.114 57.0232 270.161C53.4243 264.194 49.0822 258.546 44.3321 253.448C44.1579 253.259 43.9838 253.071 43.8043 252.877C41.746 250.732 39.4067 249.339 36.7429 248.07C35.3727 247.414 35.3727 247.414 34.7935 246.836C35.1736 246.576 35.5546 246.317 35.9361 246.059C36.1482 245.915 36.3603 245.771 36.5789 245.622C39.3703 243.885 43.4222 245.139 46.133 246.382Z" fill="#2E435A"/>
<path d="M82.9176 156.074C83.1535 156.071 83.3898 156.068 83.6329 156.064C85.0343 156.061 86.2002 156.177 87.5212 156.652C87.9593 157.09 87.8308 157.607 87.8406 158.209C87.846 158.485 87.8514 158.76 87.8568 159.044C87.8613 159.343 87.8658 159.643 87.8703 159.951C87.8757 160.256 87.8811 160.561 87.8869 160.875C87.9044 161.853 87.9197 162.832 87.9354 163.81C87.9467 164.471 87.9584 165.132 87.97 165.794C87.9983 167.419 88.0253 169.044 88.0514 170.669C88.1632 170.399 88.2756 170.129 88.391 169.85C88.8138 168.83 89.238 167.81 89.6621 166.79C89.8441 166.352 90.026 165.914 90.208 165.475C91.0851 163.359 91.9675 161.244 92.9016 159.152C93.0211 158.884 93.1406 158.615 93.2637 158.339C93.6155 157.71 93.6155 157.71 94.4104 157.181C95.0232 157.113 95.0232 157.113 95.7354 157.111C96.1204 157.11 96.1204 157.11 96.5136 157.109C96.7813 157.111 97.0491 157.113 97.325 157.115C97.5928 157.113 97.8606 157.111 98.1364 157.109C98.3934 157.11 98.6504 157.11 98.9151 157.111C99.1501 157.112 99.3851 157.113 99.6268 157.113C100.24 157.181 100.24 157.181 101.034 157.71C101.189 158.346 101.189 158.346 101.268 159.147C101.313 159.59 101.313 159.59 101.36 160.042C101.389 160.358 101.419 160.674 101.449 161C101.497 161.48 101.497 161.48 101.547 161.969C101.612 162.62 101.677 163.27 101.739 163.921C101.844 164.998 101.957 166.073 102.073 167.149C102.171 168.058 102.265 168.967 102.359 169.876C102.804 169.211 103.019 168.785 103.253 168.046C103.32 167.84 103.386 167.633 103.454 167.421C103.524 167.198 103.595 166.976 103.666 166.747C103.741 166.517 103.814 166.287 103.89 166.05C104.206 165.067 104.518 164.083 104.832 163.1C105.06 162.381 105.291 161.663 105.521 160.945C105.626 160.614 105.626 160.614 105.732 160.276C106.725 157.185 106.725 157.185 107.924 156.388C109.107 156.27 110.296 156.302 111.484 156.305C111.813 156.301 112.142 156.297 112.48 156.292C112.954 156.292 112.954 156.292 113.437 156.292C113.726 156.291 114.015 156.29 114.313 156.29C115.157 156.398 115.518 156.615 116.137 157.181C115.527 159.679 114.655 162.068 113.753 164.471C113.677 164.674 113.601 164.877 113.523 165.087C112.226 168.553 110.848 171.974 109.36 175.364C109.02 176.139 108.685 176.915 108.35 177.693C107.995 178.515 107.636 179.336 107.278 180.157C107.081 180.615 107.081 180.615 106.879 181.082C106.754 181.365 106.629 181.649 106.501 181.94C106.392 182.19 106.282 182.44 106.17 182.697C105.762 183.44 105.421 183.908 104.744 184.422C103.976 184.55 103.976 184.55 103.094 184.544C102.777 184.543 102.461 184.541 102.134 184.54C101.804 184.534 101.474 184.527 101.134 184.521C100.802 184.521 100.47 184.52 100.128 184.52C97.6647 184.496 97.6642 184.496 97.0599 183.893C96.9296 183.31 96.8267 182.72 96.7373 182.129C96.7099 181.952 96.6825 181.774 96.6542 181.591C96.5666 181.02 96.4821 180.448 96.3976 179.876C96.341 179.504 96.284 179.133 96.2269 178.761C95.8967 176.595 95.5974 174.426 95.3238 172.252C95.2267 171.451 95.2267 171.451 94.9405 170.669C94.7622 171.061 94.7622 171.061 94.5807 171.46C94.1313 172.447 93.6816 173.434 93.2309 174.421C93.0377 174.844 92.845 175.268 92.6522 175.692C89.2061 183.269 89.2061 183.269 88.5811 183.893C82.9158 184.266 82.9158 184.266 81.1622 183.099C81.0031 182.321 81.0031 182.321 80.92 181.326C80.8962 181.059 80.8962 181.059 80.8719 180.786C80.8216 180.213 80.7767 179.64 80.7317 179.066C80.6994 178.692 80.667 178.318 80.6342 177.944C80.5579 177.056 80.4837 176.167 80.4163 175.278C80.3786 174.785 80.3391 174.292 80.2991 173.799C80.1324 171.662 80.0632 169.543 80.0672 167.4C80.0668 167.083 80.0668 166.766 80.0663 166.439C80.0663 165.778 80.0668 165.116 80.0677 164.455C80.069 163.437 80.0677 162.419 80.0663 161.401C80.0663 160.756 80.0668 160.111 80.0672 159.466C80.0668 159.16 80.0663 158.855 80.0654 158.541C80.0663 158.261 80.0672 157.982 80.0681 157.695C80.0686 157.448 80.069 157.201 80.069 156.947C80.1503 155.592 81.873 156.075 82.9176 156.074Z" fill="#EE3A2D"/>
<path d="M60.7602 13.0461C65.3575 15.7059 69.1451 19.4827 72.4183 23.6248C72.656 23.9204 72.8937 24.2159 73.1313 24.5112C76.617 28.8601 80.7259 33.9952 82.7518 39.2284C82.4193 40.2242 82.1197 40.3085 81.2287 40.8318C73.6844 45.4746 68.6684 52.0583 65.2645 60.1214C65.0897 60.1214 64.9145 60.1214 64.7343 60.1214C60.4924 50.5245 58.8394 40.8384 58.8556 30.3522C58.8556 30.1565 58.856 29.9608 58.856 29.7591C58.8848 16.7897 58.8848 16.7897 60.7602 13.0461Z" fill="#EE3B2F"/>
<path d="M52.8113 131.263C53.7347 131.425 54.5618 131.665 55.433 132.009C55.6828 132.106 55.9327 132.203 56.1901 132.303C56.4579 132.407 56.7252 132.511 57.0011 132.618C62.0401 134.535 67.1019 135.927 72.4185 136.817C72.2873 137.041 72.1557 137.266 72.02 137.497C67.2003 145.775 65.1295 153.725 64.7345 163.264C62.8286 163.108 61.0741 162.711 59.2368 162.19C58.9475 162.108 58.6581 162.026 58.3603 161.942C52.5287 160.252 46.9672 157.966 41.9478 154.536C42.0701 154.327 42.1923 154.118 42.3183 153.903C46.2061 147.193 49.2551 140.267 52.052 133.048C52.2875 132.442 52.5197 131.845 52.8113 131.263Z" fill="#FDFBF3"/>
<path d="M32.4091 250.274C35.7972 250.618 38.2585 252.467 40.623 254.77C40.8908 254.977 41.1586 255.184 41.4345 255.398C42.4139 256.272 43.194 257.254 44.0116 258.277C44.4831 258.86 44.9661 259.411 45.4752 259.96C47.8525 262.642 49.7939 265.796 51.7515 268.787C51.9128 269.032 51.9128 269.032 52.0768 269.282C55.74 274.858 59.1938 280.561 62.2877 286.473C63.0722 287.97 63.8944 289.442 64.7333 290.909C66.3247 293.7 66.3247 293.7 66.3247 294.705C64.6978 294.571 63.402 294.203 61.9197 293.531C61.6075 293.39 61.6075 293.39 61.2894 293.246C59.2441 292.289 57.4905 291.077 55.7261 289.68C55.4709 289.481 55.4709 289.481 55.2107 289.277C52.713 287.322 50.3322 285.262 48.0421 283.068C47.8048 282.843 47.5681 282.617 47.3236 282.384C45.9861 281.082 44.7736 279.721 43.6101 278.262C43.2068 277.761 42.7939 277.268 42.3722 276.783C40.4885 274.612 38.9377 272.294 37.4434 269.845C37.3344 269.666 37.2253 269.487 37.1129 269.303C34.1616 264.405 32.0841 259.305 32.111 253.514C32.11 253.289 32.1089 253.064 32.1079 252.833C32.1084 252.509 32.1085 252.509 32.109 252.179C32.1093 251.984 32.1095 251.79 32.1098 251.589C32.1441 251.068 32.1442 251.068 32.4091 250.274Z" fill="#1D3448"/>
<path d="M126.736 229.91C127.548 230.671 128.247 231.454 128.922 232.34C131.416 235.571 133.765 237.783 137.656 239.181C138.747 239.941 138.944 240.803 139.189 242.075C139.295 242.972 139.316 243.851 139.305 244.753C139.303 244.996 139.301 245.238 139.299 245.488C139.193 249.762 137.662 253.771 134.942 257.082C133.801 257.809 132.453 257.414 131.196 257.17C123.598 255.484 116.297 252.409 109.778 248.158C110.14 247.359 110.552 246.781 111.155 246.146C111.405 245.88 111.405 245.88 111.66 245.61C111.926 245.333 111.926 245.333 112.196 245.051C112.376 244.86 112.556 244.67 112.742 244.474C113.784 243.379 114.84 242.3 115.921 241.242C116.375 240.781 116.795 240.305 117.214 239.811C118.644 238.168 120.219 236.667 121.771 235.14C122.996 233.928 124.187 232.709 125.305 231.398C125.756 230.874 126.237 230.388 126.736 229.91Z" fill="#C82F2B"/>
<path d="M124.683 70.7167C127.327 72.7117 128.858 75.6581 129.548 78.8583C130.108 83.407 129.472 87.6374 126.804 91.463C125.363 93.2267 123.212 94.9075 120.907 95.2957C119.005 95.4755 117.441 95.3935 115.873 94.2377C114.21 92.8205 113.356 90.9631 113.163 88.8017C112.94 84.7269 113.167 81.1031 115.873 77.8406C117.023 76.6817 118.139 75.9164 119.798 75.8904C121.381 75.9298 122.3 76.388 123.456 77.4366C125.846 79.9527 125.791 82.6901 125.713 85.975C125.702 86.3489 125.69 86.7233 125.676 87.0972C126.731 84.045 126.724 79.898 125.498 76.909C124.362 74.7938 122.889 73.0431 120.574 72.2589C118.352 71.729 115.82 71.6228 113.766 72.7333C113.586 72.8476 113.408 72.9624 113.223 73.0803C113.022 73.2058 112.822 73.3313 112.614 73.4604C109.782 75.434 108.141 78.8009 107.492 82.1351C107.368 83.3909 107.365 84.6296 107.377 85.8903C107.379 86.1342 107.38 86.3781 107.381 86.6296C107.384 87.2263 107.388 87.8226 107.394 88.4193C105.945 86.9734 105.726 84.1866 105.671 82.2207C105.77 79.0677 106.574 76.1625 108.454 73.6093C108.593 73.4192 108.732 73.2296 108.875 73.0336C112.736 68.2191 119.603 67.5107 124.683 70.7167Z" fill="#092034"/>
<path d="M138.66 212.19C138.836 212.258 139.012 212.326 139.193 212.396C140.008 212.71 140.825 213.02 141.641 213.331C141.917 213.438 142.194 213.545 142.479 213.655C145.064 214.634 147.638 215.348 150.384 215.678C150.895 215.741 150.895 215.741 151.415 215.805C151.665 215.834 151.915 215.863 152.173 215.893C151.823 215.98 151.474 216.068 151.113 216.157C151.113 216.332 151.113 216.507 151.113 216.686C150.938 216.686 150.763 216.686 150.583 216.686C151.928 218.815 153.343 220.685 155.088 222.505C155.331 222.773 155.331 222.773 155.579 223.046C162.451 230.358 174.155 234.309 183.969 234.67C186.795 234.722 189.621 234.705 192.447 234.67C192.535 234.845 192.623 235.019 192.712 235.199C178.855 238.848 163.54 236.26 151.137 229.186C146.256 226.301 141.774 222.914 137.865 218.802C137.711 218.647 137.557 218.491 137.398 218.331C137.02 217.926 137.02 217.926 136.54 217.215C136.629 216.014 137.201 215.01 137.749 213.959C137.88 213.703 137.88 213.703 138.013 213.442C138.228 213.024 138.443 212.607 138.66 212.19Z" fill="#C82F2B"/>
<path d="M122.795 73.2619C124.825 74.8866 126.006 76.8646 126.471 79.4272C126.553 80.414 126.579 81.3963 126.587 82.3862C126.59 82.631 126.592 82.8762 126.595 83.1286C126.575 84.7583 126.287 86.1154 125.676 87.6258C125.458 86.8739 125.389 86.2391 125.423 85.4586C125.513 82.5216 125.474 80.2584 123.59 77.8572C122.495 76.7046 121.471 76.2163 119.88 76.1217C118.189 76.1823 117.11 76.8391 115.955 78.0419C113.24 81.3824 113.213 85.3765 113.488 89.4774C113.835 91.3585 114.65 92.9972 116.137 94.2377C117.271 94.8438 118.309 95.1406 119.582 95.2957C119.582 95.3827 119.582 95.4701 119.582 95.5598C117.13 96.1718 114.54 95.8378 112.29 94.6901C110.155 93.3307 108.334 91.6011 107.394 89.2129C106.559 84.7968 107.119 80.3907 109.458 76.5288C110.839 74.5239 112.578 72.6423 114.964 71.8725C117.867 71.3556 120.38 71.6026 122.795 73.2619Z" fill="#FBFBFB"/>
<path d="M149.987 128.751C150.253 128.756 150.518 128.761 150.793 128.767C157.776 128.974 165.718 130.254 170.721 135.495C173.306 138.428 174.907 142.955 174.695 146.867C173.611 146.057 172.53 145.246 171.453 144.427C164.06 138.846 155.588 134.336 146.824 131.304C145.335 130.785 145.335 130.785 144.754 130.206C146.516 129.016 147.877 128.682 149.987 128.751Z" fill="#2F455B"/>
<path d="M24.4601 59.8569C26.5004 61.3472 26.9852 64.1192 27.4409 66.4688C27.4929 66.7275 27.5449 66.9858 27.5984 67.2521C27.754 68.033 27.9066 68.814 28.0579 69.5959C28.183 70.2406 28.3093 70.8848 28.4357 71.5291C28.6807 72.7795 28.9238 74.0299 29.1656 75.2807C29.2631 75.785 29.3609 76.2894 29.4591 76.7938C29.5981 77.5102 29.7353 78.2266 29.8722 78.9431C29.9143 79.1592 29.9565 79.3752 29.9999 79.5976C30.0573 79.9007 30.0573 79.9007 30.1157 80.21C30.1494 80.3853 30.1831 80.5606 30.2178 80.7408C30.2893 81.2788 30.2893 81.2788 30.2893 82.6014C28.1033 82.427 25.9174 82.2522 23.6652 82.0724C20.4719 70.8799 20.4719 70.8799 20.4028 65.4274C20.3951 65.2265 20.3874 65.0257 20.3795 64.8185C20.3628 63.3144 20.6863 62.1636 21.5455 60.915C22.476 60.1246 23.222 59.5718 24.4601 59.8569Z" fill="#2F445B"/>
<path d="M112.163 116.718C110.843 120.567 106.701 123.747 103.237 125.627C99.5236 127.376 95.5711 127.978 91.6451 126.635C91.061 126.424 90.4836 126.203 89.9062 125.974C91.6415 122.263 95.3397 119.869 99.0145 118.354C103.322 116.81 107.652 116.674 112.163 116.718Z" fill="#EE3B2F"/>
<path d="M145.814 166.702C146.895 167.123 147.908 167.621 148.927 168.173C149.277 168.361 149.626 168.549 149.976 168.736C150.159 168.835 150.342 168.933 150.531 169.035C151.556 169.584 152.585 170.126 153.614 170.669C154 170.873 154.386 171.077 154.772 171.281C155.19 171.501 155.19 171.501 155.618 171.727C155.434 173.589 155.038 175.369 154.574 177.182C154.477 177.62 154.477 177.62 154.377 178.068C153.967 179.642 153.627 180.537 152.191 181.382C151.744 181.604 151.297 181.824 150.848 182.041C149.144 183.341 147.777 184.856 146.501 186.571C146.292 186.816 146.292 186.816 146.079 187.066C145.904 187.066 145.729 187.066 145.549 187.066C145.542 185.059 145.537 183.051 145.534 181.043C145.533 180.363 145.531 179.683 145.529 179.002C145.515 174.893 145.564 170.804 145.814 166.702Z" fill="#1D3448"/>
<path d="M126.206 54.5676C126.365 54.6738 126.523 54.7796 126.685 54.889C128.18 55.9941 128.83 57.4857 129.104 59.2786C129.193 59.9766 129.195 60.2653 128.824 60.8683C128.326 61.1795 128.326 61.1795 127.62 61.1615C126.312 60.7961 125.152 60.1923 123.942 59.5848C121.954 58.6124 120.157 58.1712 117.943 58.1873C117.749 58.1878 117.555 58.1878 117.355 58.1882C115.802 58.2138 114.382 58.4814 112.888 58.9159C112.097 59.0773 111.606 59.0342 110.838 58.7993C110.133 58.1681 110.049 57.7951 109.944 56.8486C110.094 55.4014 110.523 54.6187 111.551 53.5924C115.788 50.3286 122.177 51.7722 126.206 54.5676Z" fill="#092136"/>
<path d="M86.1966 52.716C87.0534 53.444 87.9632 54.2223 88.1308 55.3835C88.1425 57.6215 88.1425 57.6215 87.2565 58.5343C85.9773 58.9786 85.0455 58.741 83.7456 58.4187C80.5654 57.6332 78.3944 57.9878 75.5314 59.526C74.6908 59.9076 74.1269 59.9605 73.213 59.8569C72.6833 59.3279 72.6833 59.3279 72.5674 58.5343C72.6258 56.7926 73.5904 55.1226 74.8359 53.9394C76.0037 53.0352 77.3758 52.6048 78.7777 52.1874C78.9421 52.1358 79.1066 52.0843 79.2764 52.0314C81.4636 51.6081 84.2093 51.6279 86.1966 52.716Z" fill="#092136"/>
<path d="M149.523 38.9641C149.809 39.8268 149.763 40.3385 149.494 41.2007C149.425 41.43 149.356 41.6592 149.285 41.8954C149.211 42.1336 149.136 42.3717 149.059 42.6171C147.891 46.3834 147.286 50.1085 146.956 54.0224C146.922 54.412 146.887 54.8016 146.852 55.1912C146.769 56.1291 146.688 57.0674 146.608 58.0058C145.509 57.1441 144.691 56.3263 143.876 55.1791C142.916 53.865 141.899 52.6523 140.791 51.4611C140.228 50.842 139.706 50.2 139.189 49.5427C139.609 48.5537 140.231 47.8776 140.962 47.0967C141.77 46.226 142.571 45.3522 143.346 44.4518C145.21 42.329 147.264 40.6492 149.523 38.9641Z" fill="#C42F2C"/>
<path d="M81.7085 72.4028C82.9805 73.0883 83.6962 74.1966 84.3419 75.4609C84.3419 75.6353 84.3419 75.8097 84.3419 75.9895C84.0795 75.9025 83.8171 75.8151 83.5471 75.7254C81.9736 75.5084 80.8185 75.6998 79.5155 76.6229C77.9164 78.0585 77.0295 80.2221 76.8866 82.344C76.8232 84.1355 76.8345 85.862 77.1876 87.6262C74.6958 87.7571 74.6958 87.7571 72.1536 87.8907C71.9645 82.8645 72.0377 78.5019 75.3329 74.4028C77.0991 72.536 79.147 71.3412 81.7085 72.4028Z" fill="#FBFBFB"/>
<path d="M18.8958 78.8987C19.0734 79.4604 19.2498 80.0222 19.4257 80.5844C19.5241 80.8978 19.6225 81.2107 19.7238 81.533C19.9557 82.3369 19.9557 82.3369 19.9557 82.8655C19.7207 82.9749 19.4857 83.0838 19.2436 83.1963C17.3087 84.2167 16.5452 85.3761 15.7162 87.3617C14.969 89.8136 15.6085 92.2879 16.7761 94.5022C15.9648 94.7165 15.231 94.834 14.3914 94.7667C12.6538 93.7454 12.0331 91.2752 11.4768 89.4774C11.3007 88.7394 11.2492 88.1328 11.2118 87.3617C11.1954 87.1367 11.1791 86.9116 11.1622 86.6798C11.0612 84.4238 11.6034 82.5866 12.9838 80.783C14.6386 79.0318 16.5749 78.7243 18.8958 78.8987Z" fill="#2F455B"/>
<path d="M76.9234 137.082C78.3661 137.213 78.3661 137.213 79.838 137.346C79.6062 138.272 79.3662 138.84 78.9052 139.654C78.7669 139.901 78.6289 140.149 78.4865 140.404C78.3369 140.671 78.1868 140.938 78.0327 141.214C74.2226 148.147 71.1885 155.404 68.9743 163C68.8867 163 68.7995 163 68.7092 163C68.401 153.465 71.3893 144.803 76.9234 137.082Z" fill="#1D3449"/>
<path d="M7.50216 84.9816C7.54111 85.4084 7.54111 85.4084 7.58083 85.8442C7.9622 89.6881 8.60942 94.2498 11.7416 96.8824C12.0039 97.0572 12.2662 97.2316 12.5365 97.4114C12.5365 97.5858 12.5365 97.7607 12.5365 97.9404C10.9977 98.6232 9.41884 98.6488 7.76716 98.4695C6.87291 98.0561 6.87291 98.0561 6.17734 97.4114C6.03904 97.289 5.9007 97.1666 5.75818 97.0406C4.02058 95.3146 3.76223 92.9707 3.67676 90.6179C3.72836 88.8242 4.07879 87.4142 5.30793 86.0701C6.50542 84.9816 6.50542 84.9816 7.50216 84.9816Z" fill="#2F445B"/>
<path d="M138.395 201.876C138.238 202.527 138.078 203.177 137.914 203.827C137.87 204.011 137.827 204.196 137.781 204.386C137.425 205.783 137.425 205.783 136.54 206.372C135.948 206.478 135.948 206.478 135.245 206.534C134.979 206.555 134.714 206.577 134.44 206.599C134.15 206.619 133.86 206.638 133.561 206.659C133.257 206.681 132.953 206.703 132.639 206.726C128.898 206.979 125.153 207.022 121.404 207.067C120.682 207.076 119.96 207.087 119.239 207.098C117.498 207.122 115.758 207.145 114.018 207.166C114.018 207.078 114.018 206.991 114.018 206.901C115.155 206.726 116.291 206.552 117.462 206.372C117.462 206.285 117.462 206.198 117.462 206.108C117.754 206.058 118.046 206.009 118.347 205.959C127.585 204.464 127.585 204.464 136.595 201.991C137.811 201.584 137.811 201.584 138.395 201.876Z" fill="#C82F2B"/>
<path d="M168.071 94.5022C168.333 94.5022 168.595 94.5022 168.866 94.5022C168.997 94.8949 168.997 94.8949 169.131 95.2957C163.648 101.291 163.648 101.291 160.22 103.095C159.513 103.451 159.513 103.451 159.327 104.287C159.142 104.092 158.957 103.897 158.766 103.696C158.01 102.973 157.253 102.414 156.379 101.841C156.105 101.66 155.831 101.479 155.549 101.292C154.838 100.822 154.838 100.822 154.027 100.585C154.027 100.41 154.027 100.236 154.027 100.056C154.345 99.9982 154.662 99.9399 154.989 99.8803C158.935 99.1271 162.366 97.8144 165.924 95.9673C167.224 95.2957 167.224 95.2957 167.806 95.2957C167.893 95.0339 167.98 94.7721 168.071 94.5022Z" fill="#C52F2B"/>
<path d="M105.363 139.697C105.581 139.842 105.581 139.842 105.804 139.991C102.595 142.782 99.4259 144.326 95.1557 144.288C94.9234 144.29 94.6916 144.292 94.4526 144.295C92.1921 144.287 90.9871 143.655 89.3763 142.106C88.5811 141.185 88.5811 141.185 88.5811 140.52C88.8196 140.577 88.8196 140.577 89.0627 140.635C93.9053 141.625 99.474 141.46 104.075 139.623C104.744 139.462 104.744 139.462 105.363 139.697Z" fill="#DCDDDD"/>
<path d="M151.378 169.876C152.884 170.311 154.231 171.01 155.618 171.727C155.433 173.594 155.037 175.381 154.574 177.198C154.509 177.493 154.444 177.788 154.377 178.091C153.827 180.205 153.827 180.205 152.839 180.952C152.183 181.28 151.546 181.552 150.848 181.777C150.88 180.422 150.912 179.067 150.947 177.712C150.958 177.252 150.969 176.792 150.98 176.332C150.995 175.668 151.012 175.003 151.029 174.339C151.034 174.136 151.038 173.933 151.043 173.723C151.078 172.424 151.198 171.162 151.378 169.876Z" fill="#2F445A"/>
<path d="M142.369 199.761C142.95 199.785 143.53 199.826 144.108 199.876C144.425 199.903 144.743 199.931 145.07 199.958C145.316 199.98 145.561 200.002 145.814 200.025C145.897 200.239 145.98 200.453 146.066 200.673C146.18 200.955 146.293 201.238 146.41 201.529C146.521 201.809 146.632 202.088 146.746 202.375C147.219 203.367 147.719 204.282 148.728 204.785C148.728 204.96 148.728 205.135 148.728 205.315C147.702 205.322 146.675 205.327 145.648 205.331C145.214 205.335 145.214 205.335 144.77 205.338C144.347 205.339 144.347 205.339 143.916 205.341C143.529 205.343 143.529 205.343 143.134 205.345C142.33 205.313 141.57 205.198 140.78 205.05C140.831 204.887 140.882 204.724 140.935 204.556C141.351 203.205 141.713 201.864 141.991 200.479C142.104 200.025 142.104 200.025 142.369 199.761Z" fill="#2F445A"/>
<path d="M149.904 128.8C150.307 128.802 150.307 128.802 150.718 128.803C154.176 128.849 157.575 129.325 160.917 130.206C160.917 130.293 160.917 130.38 160.917 130.47C160.704 130.474 160.49 130.478 160.27 130.482C159.459 130.498 158.649 130.518 157.838 130.54C157.322 130.552 156.806 130.562 156.29 130.571C154.225 130.629 152.312 130.867 150.301 131.349C148.201 131.831 146.681 131.353 144.754 130.47C146.54 128.984 147.624 128.788 149.904 128.8Z" fill="#1D3448"/>
<path d="M68.9741 102.965C69.1377 103.071 69.3012 103.176 69.4697 103.284C69.6944 103.425 69.9186 103.565 70.15 103.709C70.3683 103.847 70.5862 103.985 70.8113 104.127C71.5644 104.564 71.5644 104.564 72.2141 104.688C73.8315 105.063 73.8315 105.063 74.3527 105.895C74.6102 106.594 74.7989 107.282 74.9687 108.007C75.0361 108.251 75.1035 108.495 75.1727 108.747C75.6472 110.537 75.6472 110.537 75.3331 111.164C72.4126 109.049 70.5889 106.685 68.9741 103.494C68.9741 103.319 68.9741 103.145 68.9741 102.965Z" fill="#F5F5F2"/>
<path d="M121.172 79.9567C122.042 80.1065 122.479 80.3176 123.027 81.0143C123.132 81.6424 123.132 81.6424 123.126 82.3369C123.128 82.566 123.13 82.7951 123.132 83.0309C123.008 83.772 122.835 84.0145 122.232 84.4525C121.57 84.4525 121.57 84.4525 120.907 84.188C120.318 83.4792 120.129 82.9829 119.996 82.0724C120.139 81.0977 120.505 80.6646 121.172 79.9567Z" fill="#F7F8F8"/>
<path d="M83.4312 78.1549C84.0768 78.3696 84.0768 78.3696 84.607 78.8987C84.6865 79.5008 84.6865 79.5008 84.6897 80.2042C84.6941 80.436 84.6986 80.6673 84.7031 80.9058C84.607 81.5433 84.607 81.5433 84.2466 82.0257C83.8117 82.3364 83.8117 82.3364 83.1328 82.3037C82.4872 82.0724 82.4872 82.0724 81.957 81.2788C81.8775 80.7086 81.8775 80.7086 81.8743 80.0885C81.8698 79.8841 81.8653 79.6796 81.8608 79.4689C82.0257 78.4925 82.4404 78.0823 83.4312 78.1549Z" fill="#F5F6F7"/>
<path d="M109.778 75.4604C109.866 75.6353 109.953 75.8097 110.043 75.9895C109.769 76.6019 109.482 77.1843 109.165 77.7747C107.726 80.4925 107.348 82.8489 107.377 85.8908C107.379 86.1346 107.379 86.3785 107.381 86.6296C107.384 87.2263 107.388 87.823 107.394 88.4198C106.506 87.5334 106.275 86.4637 106.069 85.2461C106.079 83.9114 106.187 82.6059 106.334 81.2788C106.683 81.1919 107.033 81.1044 107.394 81.0143C107.418 80.7924 107.443 80.5705 107.468 80.3418C107.686 79.2972 108.095 78.4302 108.586 77.4936C108.713 77.243 108.713 77.243 108.844 76.987C109.468 75.7698 109.468 75.7698 109.778 75.4604Z" fill="#0A1828"/>
<path d="M125.941 81.5433C126.116 81.5433 126.291 81.5433 126.472 81.5433C126.556 83.7536 126.529 85.5693 125.676 87.6262C125.462 86.8856 125.388 86.2682 125.434 85.4998C125.446 85.303 125.457 85.1057 125.47 84.9026C125.483 84.6995 125.497 84.4965 125.511 84.2871C125.523 84.0818 125.534 83.8764 125.546 83.6653C125.641 82.1423 125.641 82.1423 125.941 81.5433Z" fill="#CFD4D8"/>
<path d="M168.071 94.5022C168.333 94.5022 168.595 94.5022 168.866 94.5022C168.953 94.764 169.04 95.0258 169.131 95.2957C168.537 95.9481 167.94 96.5972 167.342 97.246C167.174 97.4307 167.006 97.6158 166.833 97.8059C166.587 98.0718 166.587 98.0718 166.336 98.343C166.186 98.5066 166.036 98.6703 165.882 98.8384C165.403 99.2791 164.955 99.5315 164.361 99.7916C164.47 99.6701 164.578 99.549 164.69 99.4239C164.833 99.2616 164.976 99.0993 165.123 98.9321C165.264 98.7725 165.406 98.6129 165.552 98.4484C165.948 97.9444 166.206 97.4594 166.481 96.8824C167.011 96.0888 167.011 96.0888 167.806 95.8248C167.893 95.3881 167.98 94.9519 168.071 94.5022Z" fill="#D5322A"/>
<path d="M91.2314 143.429C91.4071 143.513 91.5832 143.597 91.7643 143.683C92.7173 144.014 93.6276 144.077 94.6259 144.123C94.9014 144.139 94.9014 144.139 95.1826 144.154C95.6315 144.179 96.0812 144.201 96.5305 144.222C96.5305 144.309 96.5305 144.397 96.5305 144.487C95.831 144.574 95.1314 144.661 94.4107 144.751C94.6731 145.144 94.6731 145.144 94.9409 145.545C93.3634 145.466 92.3736 144.712 91.2314 143.693C91.2314 143.606 91.2314 143.519 91.2314 143.429Z" fill="#EEEFEC"/>
<path d="M108.189 90.7995C108.358 90.9743 108.528 91.1487 108.702 91.3285C110.35 92.9591 111.874 94.3615 114.018 95.2958C113.223 95.5598 113.223 95.5598 112.515 95.2644C110.681 94.2193 109.261 93.1788 108.189 91.3285C108.189 91.1541 108.189 90.9793 108.189 90.7995Z" fill="#EE261D"/>
<path d="M38.5029 112.486C39.45 113.369 40.0227 114.42 40.6723 115.527C40.7951 115.732 40.9179 115.936 41.0444 116.146C41.1603 116.343 41.2763 116.54 41.3958 116.742C41.5017 116.922 41.6077 117.101 41.7168 117.285C41.9474 117.775 41.9474 117.775 41.9474 118.569C41.6368 118.14 41.3281 117.71 41.0201 117.279C40.8479 117.04 40.6758 116.801 40.4984 116.554C40.0927 115.924 40.0927 115.924 40.0927 115.395C39.8304 115.308 39.5681 115.221 39.2978 115.131C39.0463 114.526 39.0463 114.526 38.8507 113.792C38.7841 113.549 38.7175 113.306 38.6489 113.055C38.6007 112.867 38.5525 112.68 38.5029 112.486Z" fill="#09111F"/>
<path d="M113.223 84.4525C113.311 84.4525 113.398 84.4525 113.488 84.4525C113.488 85.936 113.488 87.42 113.488 88.9483C113.663 88.9483 113.838 88.9483 114.018 88.9483C114.193 90.083 114.368 91.2178 114.548 92.3865C113.212 90.6085 113.148 88.9873 113.19 86.8493C113.192 86.6179 113.195 86.3866 113.197 86.1485C113.204 85.5832 113.213 85.0179 113.223 84.4525Z" fill="#040A13"/>
<path d="M123.821 233.083C123.909 233.345 123.996 233.607 124.086 233.877C122.694 235.138 121.304 236.393 119.847 237.58C120.197 236.804 120.575 236.261 121.182 235.666C121.336 235.515 121.489 235.363 121.648 235.207C121.808 235.052 121.967 234.896 122.132 234.736C122.294 234.577 122.456 234.418 122.623 234.254C123.021 233.863 123.421 233.473 123.821 233.083Z" fill="#E23128"/>
<path d="M122.761 133.379C122.937 133.467 123.111 133.554 123.292 133.644C123.292 133.906 123.292 134.167 123.292 134.437C123.095 134.508 122.898 134.579 122.695 134.652C121.961 134.929 121.961 134.929 121.42 135.412C121.251 135.527 121.081 135.642 120.907 135.759C120.557 135.672 120.208 135.585 119.847 135.495C120.809 134.797 121.771 134.098 122.761 133.379Z" fill="#DF2920"/>
<path d="M108.718 137.346C108.067 138.042 107.509 138.61 106.599 138.933C106.337 138.846 106.074 138.758 105.804 138.668C105.979 138.494 106.154 138.319 106.334 138.14C106.159 137.965 105.984 137.79 105.804 137.611C106.777 137.299 107.703 137.326 108.718 137.346Z" fill="#0F1723"/>
<path d="M57.8456 98.4694C57.9328 98.4694 58.0204 98.4694 58.1102 98.4694C58.2855 100.04 58.4603 101.611 58.6404 103.23C58.4656 103.23 58.2904 103.23 58.1102 103.23C58.0339 102.99 57.9575 102.75 57.8784 102.503C57.6425 101.822 57.3909 101.216 57.0508 100.585C57.2256 100.411 57.4003 100.236 57.5805 100.056C57.6861 99.5302 57.776 99.0011 57.8456 98.4694Z" fill="#EB2418"/>
<path d="M137.07 159.561C137.682 159.736 138.294 159.911 138.925 160.09C138.881 160.292 138.837 160.494 138.792 160.702C138.636 161.422 138.636 161.422 138.66 162.206C138.394 161.816 138.129 161.424 137.865 161.033C137.717 160.815 137.57 160.597 137.418 160.372C137.07 159.826 137.07 159.826 137.07 159.561Z" fill="#081220"/>
<path d="M79.0425 57.7413C82.0955 57.6924 82.0955 57.6924 83.5472 58.0058C83.5472 58.0932 83.5472 58.1802 83.5472 58.2703C81.3173 58.4012 81.3173 58.4012 79.0425 58.5348C79.0425 58.273 79.0425 58.0112 79.0425 57.7413Z" fill="#E13C2D"/>
<path d="M127.796 56.9478C128.058 57.0352 128.321 57.1226 128.591 57.2123C129.07 58.2945 129.177 59.2109 129.121 60.386C128.859 60.5169 128.859 60.5169 128.591 60.6505C128.556 60.4496 128.521 60.2488 128.484 60.0421C128.438 59.7794 128.391 59.5162 128.342 59.2454C128.296 58.9845 128.25 58.724 128.203 58.455C128.072 57.7198 128.072 57.7198 127.796 56.9478Z" fill="#1A2138"/>
<path d="M138.395 201.876C138.22 202.487 138.045 203.098 137.865 203.727C137.777 203.379 137.69 203.029 137.6 202.67C137.25 202.757 136.9 202.844 136.54 202.934C136.452 202.673 136.365 202.411 136.275 202.141C137.798 201.579 137.798 201.579 138.395 201.876Z" fill="#D93029"/>
<path d="M144.224 198.917C145.019 198.967 145.019 198.967 145.549 199.232C145.461 199.493 145.374 199.755 145.284 200.025C145.062 199.968 145.062 199.968 144.837 199.91C144.194 199.753 143.549 199.622 142.899 199.496C143.429 198.967 143.429 198.967 144.224 198.917Z" fill="#122A3E"/>
<path d="M169.66 90.0064C170.898 90.418 171.803 91.0864 172.84 91.8575C172.665 92.0319 172.49 92.2068 172.31 92.3866C172.223 92.1248 172.135 91.8629 172.045 91.593C171.604 91.4146 171.163 91.2389 170.72 91.064C170.107 90.5023 170.107 90.5023 169.66 90.0064Z" fill="#141B28"/>
<path d="M156.677 5.64081C156.94 5.64081 157.201 5.64081 157.472 5.64081C157.559 5.98992 157.647 6.33903 157.737 6.69868C157.212 6.78597 156.687 6.87326 156.147 6.96315C156.379 5.93836 156.379 5.93836 156.677 5.64081Z" fill="#DD3D2D"/>
<path d="M75.5979 234.67C75.7727 234.757 75.9475 234.845 76.1277 234.935C75.371 236.937 75.371 236.937 74.2729 237.579C74.414 236.385 74.9002 235.637 75.5979 234.67Z" fill="#07101E"/>
<path d="M190.328 234.67C191.027 234.67 191.727 234.67 192.447 234.67C192.535 234.845 192.622 235.019 192.713 235.199C191.532 235.33 191.532 235.33 190.328 235.464C190.328 235.202 190.328 234.94 190.328 234.67Z" fill="#D5332B"/>
<path d="M218.149 190.24C218.236 190.24 218.323 190.24 218.414 190.24C218.414 191.112 218.414 191.985 218.414 192.884C218.151 192.71 217.889 192.535 217.619 192.355C217.536 191.562 217.536 191.562 217.619 190.769C217.794 190.594 217.969 190.419 218.149 190.24Z" fill="#DF3B2D"/>
<path d="M104.214 137.611C105.649 137.513 105.649 137.513 106.433 138.007C106.575 138.138 106.717 138.269 106.864 138.404C105.916 138.731 105.185 138.602 104.214 138.404C104.214 138.142 104.214 137.88 104.214 137.611Z" fill="#1A2E41"/>
<path d="M58.3755 133.379C59.8182 133.772 59.8182 133.772 61.2901 134.173C61.2901 134.347 61.2901 134.522 61.2901 134.701C60.4158 134.527 59.5414 134.353 58.6406 134.173C58.553 133.911 58.4658 133.649 58.3755 133.379Z" fill="#F0F1F0"/>
<path d="M145.019 22.8314C145.32 23.733 145.249 23.8901 144.903 24.7322C144.827 24.9214 144.751 25.1106 144.672 25.3056C144.612 25.4491 144.551 25.5926 144.489 25.7405C144.314 25.6532 144.139 25.566 143.959 25.476C144.253 24.5539 144.559 23.6843 145.019 22.8314Z" fill="#D93C2D"/>
<path d="M134.685 188.388C135.722 188.724 136.219 189.053 136.805 189.975C136.717 190.15 136.63 190.324 136.54 190.504C136.229 190.253 135.92 189.999 135.612 189.744C135.44 189.603 135.268 189.462 135.091 189.316C134.957 189.185 134.823 189.053 134.685 188.917C134.685 188.743 134.685 188.568 134.685 188.388Z" fill="#111C28"/>
<path d="M106.069 138.933C106.156 139.195 106.244 139.457 106.334 139.726C106.072 139.857 106.072 139.857 105.804 139.991C105.629 139.816 105.454 139.642 105.274 139.462C105.537 139.287 105.799 139.113 106.069 138.933ZM105.009 140.255C105.184 140.343 105.359 140.43 105.539 140.52C105.277 140.782 105.015 141.043 104.744 141.313C104.569 141.226 104.395 141.138 104.214 141.049C104.477 140.787 104.739 140.525 105.009 140.255Z" fill="#F3F4EF"/>
<path d="M87.7866 87.8907C89.3102 87.8576 89.3102 87.8576 89.9064 88.1553C89.8188 88.5045 89.7317 88.8533 89.6414 89.2133C89.3794 89.0385 89.117 88.8641 88.8465 88.6843C88.9341 88.5094 89.0213 88.335 89.1116 88.1553C88.8492 88.2427 88.5868 88.3297 88.3168 88.4198C88.142 88.2449 87.9668 88.0705 87.7866 87.8907Z" fill="#171F39"/>
<path d="M154.557 0.880432C154.645 1.05498 154.732 1.22953 154.822 1.40937C154.199 2.12985 153.597 2.4181 152.703 2.7317C153.961 1.17796 153.961 1.17796 154.557 0.880432Z" fill="#07111F"/>
<path d="M194.832 192.091C194.832 193.252 194.268 193.617 193.507 194.471C193.42 194.209 193.332 193.948 193.242 193.678C193.767 193.154 194.292 192.63 194.832 192.091Z" fill="#08101E"/>
<path d="M71.0937 169.876C71.2685 169.876 71.4433 169.876 71.6234 169.876C71.6733 170.636 71.6733 170.636 71.6234 171.463C71.361 171.637 71.0991 171.812 70.8286 171.991C70.9162 171.293 71.0034 170.595 71.0937 169.876Z" fill="#ECEDEA"/>
<path d="M108.983 144.751C108.277 145.104 107.57 145.457 106.864 145.809C106.601 145.635 106.339 145.46 106.069 145.28C106.404 145.139 106.741 145.003 107.079 144.867C107.267 144.79 107.454 144.714 107.647 144.634C108.189 144.487 108.189 144.487 108.983 144.751Z" fill="#09111B"/>
<path d="M52.0164 86.3036C52.1035 86.478 52.1911 86.6529 52.2814 86.8327C52.1938 87.0071 52.1062 87.1815 52.0164 87.3617C51.4031 87.5549 50.7848 87.732 50.1616 87.8903C51.4201 86.6013 51.4201 86.6013 52.0164 86.3036Z" fill="#0C1623"/>
<path d="M143.164 12.7817C143.426 12.8689 143.689 12.9562 143.959 13.0461C143.609 13.4825 143.259 13.9189 142.899 14.3685C142.636 14.2812 142.374 14.1939 142.104 14.104C142.454 13.6676 142.804 13.2313 143.164 12.7817Z" fill="#0B1A29"/>
</g>
<defs>
<clipPath id="clip0_7149_205">
<rect width="226" height="308" fill="white"/>
</clipPath>
</defs>
</svg>
